<svg id="Layer_1" data-name="Layer 1" xmlns="http://www.w3.org/2000/svg" viewBox="0 0 512 332.01"><defs><style>.cls-1{fill:#423c32;}</style></defs><title>coliseu</title><path class="cls-1" d="M1217,690v6c-2.6,3.55-6,4.89-10.48,5.23-40.22,3.08-80.51,4-120.81,4.72-98,1.62-195.89,2.09-293.77-3-25.61-1.33-51.18-3.16-76.66-6.17-4.31-.51-8-1.74-10.28-5.78v-6c1.92-.9,2.56-3.55,4.77-3.87,3.12-.44,3.29-2.37,3.41-4.93,3-60.4,6.08-120.8,8.87-181.21a45.38,45.38,0,0,1,8-24.69c3.9-5.6,7.79-11.21,11.49-16.94,1.4-2.16,2.84-3.21,5.24-1.87,7.47,4.15,13.86,2.26,19.66-3.37a13.58,13.58,0,0,1,3.28-2.26c3.11-1.59,4.67-3.9,4.44-7.53-.38-6.12,2.71-9.71,8.06-12.71a298.07,298.07,0,0,1,43-19.63c31.17-11.49,63.35-18.92,96.15-23.79a721.12,721.12,0,0,1,73.05-7.1c2.17-.1,4-.29,5.3,2.34,9.22,18.34,21.86,34.55,32.52,52a6.14,6.14,0,0,0,4.18,3.26c8.7,1.28,10.9,7,10.45,14.73a24.43,24.43,0,0,0,.28,6c1.27,6.72-.78,13.76,1.65,20.28,4.75,12.76,9.92,25.36,14.67,38.12,1,2.78,2.42,3.43,5.15,3.12,5.45-.62,11-.74,16.41-1.48,3.55-.49,6.49-.18,9,2.64,1.32,1.51,3,2.9,5.22,1.75s4.14-.52,6.26.06c5.29,1.43,10.62,2.7,15.93,4.08,21.54,5.61,43.16,10.93,64.28,18,10.08,3.38,16.27,10.15,17.69,20.76.82,6.1,1.28,12.27,1.53,18.42,1.39,34.12,2.65,68.26,4,102.39,0,1.26-.91,3.22,1.5,3.54C1213.57,685.52,1214.9,688.26,1217,690ZM1019.27,583.3h0c0-7,.2-14,0-21a24.29,24.29,0,0,0-23.61-23.16c-12.58-.22-24.07,10.2-24.41,22.93-.4,14.31-.06,28.65-.17,43,0,2.38.64,3.13,3.06,3.11q21-.15,42,0c2.69,0,3.35-.82,3.29-3.38C1019.17,597.63,1019.27,590.46,1019.27,583.3Zm-24-71.25v-.69c7,0,14-.11,21,.06,3,.07,3.91-.8,3.85-3.92-.21-11.16,0-22.33-.11-33.5a24,24,0,0,0-48.09-.07c-.15,11.83.11,23.66-.13,35.49-.07,3.39,1.2,3.78,4,3.58C982.28,512.55,988.78,512.35,995.27,512.05Zm45.83,71.47c0,7.32.08,14.65,0,22,0,2.37.67,3.21,3.09,3.19,11.49-.1,23-.08,34.46,0,2.3,0,3.22-.66,3.21-3.12-.11-14.31.25-28.64-.19-42.94-.38-12.66-9.14-22.47-19.43-22.88s-18.75,7.88-20.82,20.34a31.66,31.66,0,0,0-.27,5C1041.08,571.2,1041.1,577.36,1041.1,583.52Zm-136.41,2c0,6.82.14,13.65-.06,20.46-.08,3,.57,4,3.82,3.88q16.45-.78,32.92-.89c3.24,0,3.8-1.14,3.76-4-.14-12.81,0-25.62-.08-38.43a25.13,25.13,0,0,0-5.49-15.7c-8.16-10.41-21.77-10.17-29.7.44a26,26,0,0,0-5.15,15.81C904.67,573.21,904.7,579.37,904.69,585.52Zm90,105.63v-.1c7,0,14-.12,21,.05,2.71.07,3.73-.57,3.67-3.51-.19-9.32.07-18.65-.1-28a23.91,23.91,0,0,0-23.84-23.8,24.17,24.17,0,0,0-24.31,23.94c-.16,9.32.09,18.66-.11,28-.07,3,1,3.55,3.72,3.48C981.36,691,988,691.15,994.69,691.15ZM905.56,497.46h-.35c0,5.67,0,11.33,0,17,0,1.87.11,3.16,2.66,2.93,11.77-1.08,23.56-2,35.34-2.93,2.1-.16,2.78-.93,2.76-3.05-.12-10.33.26-20.67-.19-31-.53-12.17-9.44-22-19.48-22.42s-19,8-20.58,20.52C904.91,484.74,905.56,491.14,905.56,497.46Zm155.53,193.45v-.62c5.83,0,11.65-.06,17.47,0,2.22,0,3.29-.49,3.26-3-.14-10,0-20-.15-29.95a25,25,0,0,0-3.1-11.45c-3.65-6.72-9.06-11.29-16.92-11.4s-13.38,4.35-17.14,11a24.79,24.79,0,0,0-3.35,11.88c-.13,10.15,0,20.31-.12,30.46,0,2.91,1.25,3.17,3.58,3.12C1050.11,690.83,1055.6,690.91,1061.09,690.91Zm-136.58,0v.17c5.67,0,11.33-.15,17,.06,2.76.1,3.7-.6,3.64-3.52-.19-9.49-.09-19-.06-28.48a25,25,0,0,0-3.29-12.39c-3.64-6.44-8.89-10.82-16.67-10.94S912,640,908.19,646.34a21.62,21.62,0,0,0-3.33,10.85c-.14,10.32-.08,20.65-.21,31,0,2.19.73,2.87,2.88,2.82C913.19,690.86,918.85,690.94,924.51,690.94ZM849.94,589.62c0,7.66.11,14-.06,20.29-.08,2.62.64,3.43,3.32,3.19,8.94-.79,17.89-1.47,26.86-2,2.76-.15,2.7-1.59,2.7-3.56,0-10.31,0-20.62-.06-30.93a49.5,49.5,0,0,0-1-9.41c-2-9.65-8.62-16.43-15.63-16.33-6.84.09-13,6.69-15.21,16.18C849,575,850.43,583,849.94,589.62Zm1-85.13h-.28c0,6,.17,12-.07,18-.13,3.28.87,3.93,4,3.29,8.45-1.72,17-3.29,25.47-4.62,2.51-.39,3.35-1.22,3.31-3.73-.17-10.14,0-20.28-.27-30.41a24.89,24.89,0,0,0-6.37-16.37c-5.71-6.43-13.75-6.4-19.47,0a24.37,24.37,0,0,0-6.23,15.4C850.7,492.18,850.9,498.34,850.9,504.49Zm270.58,185.32V689c4.32,0,8.65-.12,13,0,2.52.09,3.5-.6,3.44-3.32-.19-7.65.09-15.3-.14-23-.22-6.92-1.77-13.53-6.53-18.92-5.78-6.54-13.57-6.65-19.49-.3A22.8,22.8,0,0,0,1106,655c-2.11,10.88-.57,21.89-1,32.83-.1,2.42,1.59,2,3,2Zm-255.11.07v.51c4.49,0,9,0,13.49,0,1.71,0,2.95-.2,2.88-2.35-.3-10.64,1-21.36-1-31.91-1.79-9.65-8.56-16.52-15.56-16.5S853,646.21,851,655.79c-2.18,10.53-.56,21.25-1,31.87-.11,2.32,1.39,2.23,3,2.23C857.37,689.87,861.87,689.88,866.37,689.88Zm278.46-104.45h-.22c0-3,.08-6,0-9-.21-6.72-1.14-13.25-5.22-18.91-6.35-8.79-15.9-8.9-22.28-.13a29.84,29.84,0,0,0-3.2,6.14c-2.8,6.85-2.68,14.11-1.66,21.14,1.51,10.42,1.88,10.37,12.41,12,2.46.39,4.93.73,7.4,1,4.12.5,9.75,2.79,12,1,2.78-2.26.58-8,.78-12.28C1144.84,586.09,1144.83,585.76,1144.83,585.43Zm46.71,13.48h-.42c0-5.81.12-11.63,0-17.43a26.49,26.49,0,0,0-2.92-11c-2-4-4.2-7.92-9.28-7.88-4.83,0-7.05,3.85-9,7.63a26.74,26.74,0,0,0-3,11.46c-.22,10.13-.22,20.26-.47,30.39-.06,2.56.83,3.52,3.33,3.74,6.12.53,12.24,1.12,18.32,2,3.14.46,3.6-.8,3.52-3.47C1191.43,609.21,1191.54,604.06,1191.54,598.91ZM803,597.54c0,6.55,0,12.05,0,17.54,0,1.84,0,3.17,2.57,2.83,6.6-.87,13.22-1.53,19.84-2.17,2.12-.21,2.7-1.19,2.67-3.24-.13-9.64.14-19.31-.25-28.94-.26-6.51-1.75-12.88-6.37-17.95-3.8-4.16-8.2-4.13-12,0-3,3.29-4.42,7.35-5.43,11.59C802.27,584.29,803.24,591.47,803,597.54Zm.7-81.31c0,6.86.07,12.52,0,18.17,0,2.32.67,2.83,2.94,2.23,6.41-1.69,12.88-3.2,19.34-4.69,1.86-.43,2.89-1.15,2.82-3.31-.31-10.13.6-20.3-.75-30.4a26.06,26.06,0,0,0-5-12.85c-4.39-5.65-9.64-5.57-13.94.19a25.83,25.83,0,0,0-4.06,9C803,502.12,804,509.81,803.65,516.23ZM828,675.37h-.06c0-3.16.1-6.33,0-9.48A35.42,35.42,0,0,0,825,652.34c-2-4.3-4.23-8.84-9.74-8.75-5.21.08-7.5,4.38-9.31,8.59a35.59,35.59,0,0,0-2.05,6.63c-1.82,8.89-.56,17.91-1,26.86-.1,2.19,1,2.34,2.71,2.4,6.32.22,12.64.41,18.94.92,3.08.26,3.59-1,3.44-3.64C827.81,682,828,678.7,828,675.37Zm363.57-3.09h.15c-.23-4.15-.3-8.3-.72-12.43a26,26,0,0,0-5.18-13.78c-4.32-5.48-9.25-5.44-13.61,0-6,7.43-9.3,28.76-.38,39.92a3.08,3.08,0,0,0,3,1.19c4.65-.13,9.29-.34,13.94-.4,2.12,0,2.94-.89,2.88-3C1191.45,679.92,1191.53,676.1,1191.53,672.28ZM764.18,549.09c5.49-1.77,10.31-3.48,15.23-4.84,2.19-.61,2.34-1.92,2.31-3.69-.15-8.46.36-16.94-.69-25.38a35.43,35.43,0,0,0-2.43-9.61c-1.1-2.56-2.08-5.69-5.47-5.77-3.71-.08-4.61,3.32-5.85,6a23.44,23.44,0,0,0-1.42,4.75C763.1,523,764.77,535.66,764.18,549.09ZM763.73,605c0,5.46.13,10.12-.05,14.76-.09,2.59.5,3.65,3.31,3.07a77.81,77.81,0,0,1,10.82-1.61c2.67-.16,3.27-1.22,3.21-3.65-.14-6.15,0-12.3,0-18.44,0-6.35-.62-12.61-2.91-18.59-1.08-2.81-2.22-6.19-5.62-6.28-3.78-.1-4.8,3.59-6,6.47a36.89,36.89,0,0,0-1.5,5.23C763.33,592.48,763.88,599.16,763.73,605Zm0,68.33v3c0,9.29,0,9.29,9,9.93,8.2.58,8.18.58,8.21-7.68s.21-16.64-2.85-24.57c-1.13-2.93-2.18-6.59-6-6.49s-4.78,3.78-5.86,6.69C764,660.33,763.64,666.8,763.73,673.31Zm-31.52-57.43v3c0,10.47,0,10.36,10.3,8.35,2.44-.48,3.37-1.18,3.33-3.74-.14-8.15.23-16.32-.87-24.44-.52-3.79-1.17-7.59-3.13-11-1.72-3-3.86-3.15-5.6-.09a23.77,23.77,0,0,0-2.21,6C732.28,601.22,732.11,608.54,732.21,615.88ZM733,562l11.35-4.3a2.78,2.78,0,0,0,2-3c-.13-8,.31-16-2-23.7-.82-2.77-1.16-6.78-4.66-6.81s-3.89,4-4.67,6.77C732.17,541,733.13,551.34,733,562Zm12.76,112.82c-.21-4.18-.36-9.66-1.73-15-.85-3.29-1.12-8.16-4.94-8.28-4-.12-4.25,4.82-5.09,8-1.48,5.63-1.46,11.46-1.9,17.23-.34,4.43.56,6.34,5.56,6.55C745.89,683.76,745.87,684.17,745.78,674.85Z" transform="translate(-705 -375.05)"/></svg>