<?xml version="1.0" encoding="utf-8"?>
<!-- Generator: Adobe Illustrator 22.0.0, SVG Export Plug-In . SVG Version: 6.00 Build 0)  -->
<svg version="1.1" id="Layer_1" xmlns="http://www.w3.org/2000/svg" xmlns:xlink="http://www.w3.org/1999/xlink" x="0px" y="0px"
	 viewBox="0 0 1920 1080" style="enable-background:new 0 0 1920 1080;" xml:space="preserve">
<style type="text/css">
	.st0{fill:#423C32;}
	.st1{enable-background:new    ;}
</style>
<g>
	<path class="st0" d="M705.7,665.5v6.4c-2.8,3.8-6.4,5.2-11.2,5.6c-42.9,3.3-85.8,4.3-128.8,5c-104.4,1.7-208.8,2.2-313.1-3.2
		c-27.3-1.4-54.5-3.4-81.7-6.6c-4.6-0.5-8.5-1.9-11-6.2v-6.4c2-1,2.7-3.8,5.1-4.1c3.3-0.5,3.5-2.5,3.6-5.3
		c3.2-64.4,6.5-128.7,9.5-193.1c0.2-9.4,3.2-18.6,8.5-26.3c4.2-6,8.3-11.9,12.2-18.1c1.5-2.3,3-3.4,5.6-2c8,4.4,14.8,2.4,21-3.6
		c1-1,2.2-1.8,3.5-2.4c3.3-1.7,5-4.2,4.7-8c-0.4-6.5,2.9-10.3,8.6-13.5c14.7-8.2,30-15.2,45.8-20.9c33.2-12.2,67.5-20.2,102.5-25.4
		c25.8-3.8,51.8-6.4,77.9-7.6c2.3-0.1,4.3-0.3,5.6,2.5c9.8,19.5,23.3,36.8,34.7,55.4c0.9,1.8,2.5,3.1,4.5,3.5
		c9.3,1.4,11.6,7.5,11.1,15.7c-0.2,2.1-0.1,4.3,0.3,6.4c1.4,7.2-0.8,14.7,1.8,21.6c5.1,13.6,10.6,27,15.6,40.6
		c1.1,3,2.6,3.7,5.5,3.3c5.8-0.7,11.7-0.8,17.5-1.6c3.8-0.5,6.9-0.2,9.6,2.8c1.4,1.6,3.2,3.1,5.6,1.9c2.4-1.2,4.4-0.6,6.7,0.1
		c5.6,1.5,11.3,2.9,17,4.3c23,6,46,11.6,68.5,19.2c10.7,3.6,17.3,10.8,18.9,22.1c0.9,6.5,1.4,13.1,1.6,19.6
		c1.5,36.4,2.8,72.8,4.3,109.1c0,1.3-1,3.4,1.6,3.8C702,660.7,703.5,663.6,705.7,665.5z M495,551.8L495,551.8c0-7.5,0.2-14.9,0-22.4
		c-0.6-13.5-11.6-24.3-25.2-24.7c-13.4-0.2-25.7,10.9-26,24.4c-0.4,15.3-0.1,30.5-0.2,45.8c0,2.5,0.7,3.3,3.3,3.3
		c14.9-0.1,29.8-0.1,44.8,0c2.9,0,3.6-0.9,3.5-3.6C494.8,567,495,559.4,495,551.8z M469.4,475.8v-0.7c7.5,0,14.9-0.1,22.4,0.1
		c3.2,0.1,4.2-0.9,4.1-4.2c-0.2-11.9,0-23.8-0.1-35.7c0-14.2-11.4-25.6-25.6-25.7c-14.2,0-25.6,11.4-25.7,25.6l0,0
		c-0.2,12.6,0.1,25.2-0.1,37.8c-0.1,3.6,1.3,4,4.3,3.8C455.5,476.4,462.5,476.2,469.4,475.8z M518.2,552c0,7.8,0.1,15.6,0,23.4
		c0,2.5,0.7,3.4,3.3,3.4c12.2-0.1,24.5-0.1,36.7,0c2.5,0,3.4-0.7,3.4-3.3c-0.1-15.3,0.3-30.5-0.2-45.8c-0.4-13.5-9.7-23.9-20.7-24.4
		s-20,8.4-22.2,21.7c-0.2,1.8-0.3,3.5-0.3,5.3C518.2,538.9,518.2,545.4,518.2,552z M372.8,554.1c0,7.3,0.1,14.5-0.1,21.8
		c-0.1,3.2,0.6,4.3,4.1,4.1c11.7-0.6,23.4-0.9,35.1-0.9c3.5,0,4.1-1.2,4-4.3c-0.1-13.7,0-27.3-0.1-41c0-6.1-2.1-12-5.9-16.7
		c-8.7-11.1-23.2-10.8-31.7,0.5c-3.6,4.9-5.6,10.8-5.5,16.9C372.8,541,372.8,547.6,372.8,554.1L372.8,554.1z M468.8,666.7
		L468.8,666.7c7.5-0.1,14.9-0.2,22.4,0c2.9,0.1,4-0.6,3.9-3.7c-0.2-9.9,0.1-19.9-0.1-29.8c-0.1-14-11.4-25.3-25.4-25.4
		c-14.2-0.1-25.8,11.3-25.9,25.5c-0.2,9.9,0.1,19.9-0.1,29.8c-0.1,3.2,1.1,3.8,4,3.7C454.5,666.6,461.6,666.7,468.8,666.7
		L468.8,666.7z M373.8,460.3h-0.4c0,6,0,12.1,0,18.1c0,2,0.1,3.4,2.8,3.1c12.5-1.2,25.1-2.1,37.7-3.1c2.2-0.2,3-1,2.9-3.3
		c-0.1-11,0.3-22-0.2-33c-0.6-13-10.1-23.4-20.8-23.9c-10.7-0.4-20.3,8.5-21.9,21.9C373.1,446.7,373.8,453.6,373.8,460.3z
		 M539.5,666.5v-0.7c6.2,0,12.4-0.1,18.6,0c2.4,0,3.5-0.5,3.5-3.2c-0.1-10.7,0-21.3-0.2-31.9c-0.1-4.3-1.2-8.5-3.3-12.2
		c-3.9-7.2-9.7-12-18-12.2c-8.4-0.1-14.3,4.6-18.3,11.7c-2.2,3.9-3.5,8.2-3.6,12.7c-0.1,10.8,0,21.6-0.1,32.5c0,3.1,1.3,3.4,3.8,3.3
		C527.8,666.4,533.7,666.5,539.5,666.5z M394,666.5v0.2c6,0,12.1-0.2,18.1,0.1c2.9,0.1,3.9-0.6,3.9-3.8c-0.2-10.1-0.1-20.3-0.1-30.4
		c0-4.6-1.2-9.2-3.5-13.2c-3.9-6.9-9.5-11.5-17.8-11.7c-8.3-0.1-14,4.5-18.1,11.2c-2.2,3.5-3.4,7.5-3.5,11.6c-0.1,11-0.1,22-0.2,33
		c0,2.3,0.8,3.1,3.1,3C381.9,666.4,387.9,666.5,394,666.5L394,666.5z M314.5,558.5c0,8.2,0.1,14.9-0.1,21.6
		c-0.1,2.8,0.7,3.7,3.5,3.4c9.5-0.8,19.1-1.6,28.6-2.1c2.9-0.2,2.9-1.7,2.9-3.8c0-11,0-22-0.1-33c0-3.4-0.4-6.7-1.1-10
		c-2.1-10.3-9.2-17.5-16.7-17.4c-7.3,0.1-13.9,7.1-16.2,17.2C313.5,542.9,315,551.5,314.5,558.5z M315.5,467.8h-0.3
		c0,6.4,0.2,12.8-0.1,19.2c-0.1,3.5,0.9,4.2,4.3,3.5c9-1.8,18.1-3.5,27.1-4.9c2.7-0.4,3.6-1.3,3.5-4c-0.2-10.8,0-21.6-0.3-32.4
		c-0.1-6.4-2.5-12.6-6.8-17.4c-6.1-6.9-14.7-6.8-20.8,0c-4.1,4.5-6.4,10.3-6.6,16.4C315.3,454.7,315.5,461.2,315.5,467.8
		L315.5,467.8z M603.9,665.3v-0.9c4.6,0,9.2-0.1,13.9,0c2.7,0.1,3.7-0.6,3.7-3.5c-0.2-8.2,0.1-16.3-0.1-24.5
		c-0.2-7.4-1.9-14.4-7-20.2c-6.2-7-14.5-7.1-20.8-0.3c-3.2,3.4-5.3,7.7-6.2,12.3c-2.2,11.6-0.6,23.3-1.1,35
		c-0.1,2.6,1.7,2.1,3.2,2.1L603.9,665.3z M332,665.4v0.5c4.8,0,9.6,0,14.4,0c1.8,0,3.1-0.2,3.1-2.5c-0.3-11.3,1.1-22.8-1.1-34
		c-1.9-10.3-9.1-17.6-16.6-17.6s-14.1,7-16.2,17.2c-2.3,11.2-0.6,22.6-1.1,34c-0.1,2.5,1.5,2.4,3.2,2.4
		C322.4,665.4,327.2,665.4,332,665.4L332,665.4z M628.8,554h-0.2c0-3.2,0.1-6.4,0-9.6c-0.2-7.2-1.2-14.1-5.6-20.2
		c-6.8-9.4-16.9-9.5-23.7-0.1c-1.4,2-2.5,4.2-3.4,6.5c-3,7.3-2.9,15-1.8,22.5c1.6,11.1,2,11.1,13.2,12.8c2.6,0.4,5.3,0.8,7.9,1.1
		c4.4,0.5,10.4,3,12.8,1.1c3-2.4,0.6-8.5,0.8-13.1C628.8,554.7,628.8,554.4,628.8,554L628.8,554z M678.6,568.4h-0.4
		c0-6.2,0.1-12.4,0-18.6c-0.2-4.1-1.2-8.1-3.1-11.7c-2.1-4.3-4.5-8.4-9.9-8.4c-5.1,0-7.5,4.1-9.6,8.1c-2,3.8-3.1,8-3.2,12.2
		c-0.2,10.8-0.2,21.6-0.5,32.4c-0.1,2.7,0.9,3.8,3.5,4c6.5,0.6,13,1.2,19.5,2.1c3.3,0.5,3.8-0.9,3.8-3.7
		C678.4,579.4,678.6,573.9,678.6,568.4L678.6,568.4z M264.4,567c0,7,0,12.8,0,18.7c0,2,0,3.4,2.7,3c7-0.9,14.1-1.6,21.1-2.3
		c2.3-0.2,2.9-1.3,2.8-3.5c-0.1-10.3,0.1-20.6-0.3-30.8c-0.3-6.9-1.9-13.7-6.8-19.1c-4.1-4.4-8.7-4.4-12.8,0
		c-3.2,3.5-4.7,7.8-5.8,12.4C263.7,552.8,264.7,560.5,264.4,567z M265.2,480.3c0,7.3,0.1,13.3,0,19.4c0,2.5,0.7,3,3.1,2.4
		c6.8-1.8,13.7-3.4,20.6-5c2-0.5,3.1-1.2,3-3.5c-0.3-10.8,0.6-21.6-0.8-32.4c-0.5-5-2.4-9.7-5.3-13.7c-4.7-6-10.3-5.9-14.9,0.2
		c-2,2.9-3.5,6.1-4.3,9.6C264.4,465.3,265.5,473.4,265.2,480.3L265.2,480.3z M291.1,649.9L291.1,649.9c-0.1-3.4,0-6.7-0.1-10.1
		c-0.1-5-1.1-9.9-3.1-14.4c-2.1-4.6-4.5-9.4-10.4-9.3c-5.6,0.1-8,4.7-9.9,9.2c-1,2.3-1.7,4.6-2.2,7.1c-1.9,9.5-0.6,19.1-1.1,28.6
		c-0.1,2.3,1.1,2.5,2.9,2.6c6.7,0.2,13.5,0.4,20.2,1c3.3,0.3,3.8-1.1,3.7-3.9C290.9,657,291.1,653.5,291.1,649.9z M678.6,646.6h0.2
		c-0.2-4.4-0.3-8.8-0.8-13.2c-0.4-5.3-2.3-10.4-5.5-14.7c-4.6-5.8-9.9-5.8-14.5,0c-6.4,7.9-9.9,30.7-0.4,42.5c0.7,1,2,1.5,3.2,1.3
		c5-0.1,9.9-0.4,14.9-0.4c2.3,0,3.1-0.9,3.1-3.2C678.5,654.8,678.5,650.7,678.6,646.6L678.6,646.6z M223.1,515.3
		c5.9-1.9,11-3.7,16.2-5.2c2.3-0.7,2.5-2,2.5-3.9c-0.2-9,0.4-18.1-0.7-27.1c-0.4-3.5-1.3-7-2.6-10.2c-1.2-2.7-2.2-6.1-5.8-6.1
		c-4-0.1-4.9,3.5-6.2,6.4c-0.7,1.6-1.2,3.3-1.5,5.1C221.9,487.5,223.7,501,223.1,515.3z M222.6,574.9c0,5.8,0.1,10.8-0.1,15.7
		c-0.1,2.8,0.5,3.9,3.5,3.3c3.8-0.8,7.7-1.4,11.5-1.7c2.8-0.2,3.5-1.3,3.4-3.9c-0.1-6.6,0-13.1,0-19.7c0-6.8-0.7-13.4-3.1-19.8
		c-1.2-3-2.4-6.6-6-6.7c-4-0.1-5.1,3.8-6.4,6.9c-0.7,1.8-1.2,3.7-1.6,5.6C222.2,561.6,222.8,568.7,222.6,574.9z M222.6,647.7v3.2
		c0,9.9,0,9.9,9.6,10.6c8.7,0.6,8.7,0.6,8.8-8.2c0-8.8,0.2-17.7-3-26.2c-1.2-3.1-2.3-7-6.4-6.9c-4.1,0.1-5.1,4-6.2,7.1
		C222.9,633.9,222.5,640.8,222.6,647.7L222.6,647.7z M189,586.5v3.2c0,11.2,0,11,11,8.9c2.6-0.5,3.6-1.3,3.5-4
		c-0.1-8.7,0.2-17.4-0.9-26c-0.6-4-1.2-8.1-3.3-11.7c-1.8-3.2-4.1-3.4-6-0.1c-1.1,2-1.9,4.2-2.4,6.4
		C189.1,570.9,188.9,578.7,189,586.5L189,586.5z M189.8,529.1l12.1-4.6c1.4-0.4,2.3-1.8,2.1-3.2c-0.1-8.5,0.3-17.1-2.1-25.3
		c-0.9-3-1.2-7.2-5-7.3c-3.7,0-4.1,4.3-5,7.2C189,506.7,190,517.7,189.8,529.1z M203.4,649.3c-0.2-4.5-0.4-10.3-1.8-16
		c-0.9-3.5-1.2-8.7-5.3-8.8c-4.3-0.1-4.5,5.1-5.4,8.5c-1.6,6-1.6,12.2-2,18.4c-0.4,4.7,0.6,6.8,5.9,7
		C203.6,658.8,203.6,659.3,203.4,649.3L203.4,649.3z"/>
	<g class="st1">
		<path class="st0" d="M865.3,469.7l-1.2,5.8c-0.1,0.4-0.4,0.9-0.8,1.4c-0.5,0.6-0.7,0.9-0.8,1c-0.6,2.9-1.3,5.7-1.9,8.6
			c-0.7,2.6-2,4.3-3.9,5.2c-0.5,0.3-1,0.8-1.7,1.7c-1.6,2.1-2.9,3.6-4.1,4.4c-0.5,0.3-1.2,0.7-2.3,1.3c-1.1,0.6-1.9,1-2.3,1.1
			c-0.5,0.1-1.2,0.2-2.1,0.2c-1.7,0-3.3,0.1-4.6,0.3c-1.3,0.2-2.9,0.5-4.7,0.9c-5.9,0-10.5-0.7-13.8-2.2c-0.7-0.4-1.4-0.8-1.9-1.2
			c-0.5-0.4-1-0.8-1.4-1.3c-1.6-1.1-2.9-2-4-2.6s-1.9-1-2.5-1c-0.8,0-1.5,0.5-1.9,1.4c-0.9,1.9-1.4,2.9-1.5,3
			c-1.1,1.5-2.9,2.2-5.4,2.2c-1.4,0-2.5-0.7-3.4-2.2c-0.2-0.4-0.3-1.1-0.9-2.1V494l-0.5-2.8c-0.6-1.9-0.8-3.4-0.8-4.4l1.8-5.9
			l0.4-7.3l0.4-7.2c0.5-0.7,1.2-1.2,2.2-1.4c1-0.2,2-0.3,2.9-0.3c1.7,0,3.1,0.3,4.3,0.8c1.2,0.6,1.9,1.6,2.1,3.1
			c0.2,1.5,0.4,2.9,0.6,4.1c0.4,0.9,1.4,2,3,3.3c0.9,0.7,1.8,1.4,2.8,2.1c0.2,1,0.4,2,0.6,3.1c0.2,1.1,0.8,1.7,1.8,1.9L819,486
			l3.9,2.1c0.9,0.7,1.6,1.2,2,1.4c0.4,0.2,0.9,0.4,1.4,0.6c0.6,0.2,1.4,0.3,2.5,0.3s1.8,0,2.2,0.1c0.4,0,0.9,0.2,1.6,0.5
			c0.7,0.3,1.4,0.4,2,0.4c1.5,0,2.6-0.2,3.3-0.6c0.7-0.6,1.5-1.1,2.3-1.8c1.9,0,3.8-0.4,5.5-1.2c3.5-1.7,5.2-4.8,5.2-9.5
			c0-1.8-0.2-3.4-0.5-4.6s-0.9-2.4-1.7-3.5c-0.1-0.2-0.6-0.4-1.4-0.7c-0.8-0.3-1.3-0.5-1.4-0.7c-0.7-1.1-1.5-2.2-2.2-3.3l-2.8-2.5
			c-0.3-0.2-1-0.5-2.1-1s-1.8-0.8-2.1-1l-1.9-2.2c0-1-0.1-1.7-0.3-1.9l-4.1-3.6c-0.1-0.1-0.5-0.2-1.2-0.4c-0.7-0.2-1.1-0.3-1.3-0.4
			c-0.6-0.5-1.2-1.1-1.8-1.9c-0.9-1.4-1.6-2.3-2.1-2.8s-1.2-0.8-2.1-1c-0.9-0.2-1.8-0.3-2.8-0.4c-0.3-0.5-0.5-0.8-0.6-1
			c-0.5-0.7-1-1.4-1.5-1.9c-0.2-0.2-0.9-0.7-2.2-1.6s-2.2-1.6-2.8-2.3c-0.9-1-1.7-1.9-2.2-2.6c-0.9-1.4-1.6-2.3-1.9-2.9
			c0-0.8-0.1-1.5-0.3-1.9c-0.5-0.7-1.1-1.6-2-2.7s-1.4-1.8-1.7-2.3v-3.7c-0.3-1.5-0.7-2.6-1-3.3c-0.9-2.4-1.4-3.7-1.4-4
			c0.3-0.4,0.6-1,0.8-1.9l0.6-2.8l1.1-1.4c0.2-0.5,0.4-1.3,0.6-2.6c0.2-1.3,0.6-2.3,1-2.9c1.2-0.6,1.9-1,2.2-1.4
			c0.5-1.1,0.9-2.2,1.4-3.3c1.1-0.6,1.9-1,2.5-1.4c1.1-0.3,1.8-0.6,2.2-0.8c1.3-0.9,2.6-1.8,3.9-2.8c0.4-0.2,1.1-0.3,2.3-0.5
			c1.1-0.1,2.2-0.3,3.2-0.5s1.8-0.3,2.4-0.3l2.9-1c0.5-0.2,1.1-0.4,1.8-0.6s1.7-0.3,3-0.3c1,0,2.3,0.2,4,0.6
			c1.3,0.6,2.2,0.9,2.8,1.1l6.1,2.5c0.7,0.5,1.4,0.9,2.1,1.2c0.7,0.3,1.5,0.5,2.4,0.5c1.1,0,2-0.2,2.6-0.6c1-0.6,2.1-1.3,3.2-1.9
			c1.2,0.7,2.1,1.3,2.6,1.8c1.7,1.6,2.6,3.3,2.6,5.1c0,0.3-0.1,0.9-0.3,1.7c-0.2,0.9-0.3,1.6-0.3,2.3c0,0.3-0.1,0.9-0.3,1.8
			s-0.3,1.7-0.3,2.2c0,0.6,0.1,1.6,0.2,2.9c0.1,1.3,0.2,2.2,0.2,2.8l-0.1,2.6c-0.5,1.7-1.9,2.6-4.3,2.6c-1.2,0-2.3-0.4-3.4-1.2
			c-0.1-0.1-0.2-0.5-0.4-1.2s-0.3-1.1-0.4-1.2l-3.3-3.6l-1.6-2.5c-0.8-0.6-1.7-1.1-2.5-1.7c-1.1-1-1.9-1.8-2.5-2.5
			c-0.2-0.2-0.5-0.9-1-2.2c-0.5-1.3-0.8-2-1-2.3c-0.2-0.2-0.6-0.3-1.2-0.2c-0.6,0.1-1,0.1-1.2-0.1c-0.2-0.1-0.7-0.3-1.4-0.6
			c-0.8-0.2-1.6-0.5-2.4-0.8c-0.7-0.7-1.3-1.2-1.7-1.5s-1.1-0.4-2.1-0.4c-0.3,0-0.8,0.3-1.4,0.8c-0.7,0.5-1.2,0.8-1.4,0.9l-3.9,2.2
			c-0.7,0.6-1.5,1.8-2.4,3.6c-0.9,1.7-1.4,2.9-1.7,3.6c-0.6,1.3-1,2.1-1,2.3c0,0.6,0.1,1.2,0.3,1.8s0.4,1.3,0.7,2.3s0.6,2,0.9,3.2
			c0.3,1.2,0.8,2.2,1.5,3s1.7,1.4,3.2,1.9c1.4,0.5,2.9,0.9,4.3,1.3c0.7,0.5,1.8,1.5,3.1,3.2s2.7,3.4,4.1,5.2
			c1.6,1.3,3.1,2.6,4.7,3.9c1,0.4,2.1,0.7,3.2,1.1l4,4.1c0.8-0.1,1.5-0.1,2.1-0.1c0.5,0,0.8,0.1,1.1,0.3c0.3,0.2,0.6,0.6,0.9,1.4
			c0.3,0.7,0.7,1.4,1.2,1.9c0.5,0.6,1.4,1.3,2.7,2.3s2.3,1.8,3,2.5s1.2,1.5,1.4,2.5c0.3,1,0.5,1.6,0.6,2c0.7,4,1.3,6.8,1.7,8.6
			C863.7,466.3,864.3,468,865.3,469.7z"/>
		<path class="st0" d="M979.3,398.6l-0.7,4l-1.4,4.7c-0.8,2.7-1.7,4.6-2.7,5.9s-2,1.9-3.2,1.9c-1,0-2.2-0.5-3.4-1.6l-1.7-2
			c-1.1-1-1.9-1.8-2.3-2.1c-1.1-1-2.1-1.7-2.9-2.1c-1.7,0.1-2.8,0.1-3.3,0l-4.7-1.4c-0.5-0.1-1.1-0.3-1.9-0.7
			c-0.8-0.4-1.5-0.6-2.1-0.3h-11.2c-0.5,0.3-0.9,0.8-1.4,1.3s-0.7,1-0.7,1.4c0.3,0.4,0.5,0.6,0.6,0.8c0.5,0.8,0.8,1.6,1,2.3
			c0.2,0.7,0.3,1.4,0.8,2.1v3.3c-0.5,0.6-0.9,2.4-1.6,5.3c-0.7,2.9-1.2,4.5-1.5,4.9l1.2,5.4v3.7l-1,2v5.9c0,0,0.1,0.9,0.7,1.7
			c0.6,0.7,1.3,2.1,1.3,2.1v4l0.4,1.4l-0.4,9c0.3,0.7,0.4,1.3,0.4,1.7c0,0.5-0.1,1.1-0.3,1.8c-0.6,0.8-1.1,1.7-1.6,2.5l0.8,3.9
			l1.2,5.2c0.1,1.7,0.1,3,0.2,4.1c0.1,1.1,0.2,1.8,0.5,2.3c0.1,0.1,0.2,0.3,0.4,0.6c-0.4,1-0.6,1.6-0.6,1.8c0,1.2,0.7,2.3,2.1,3.4
			c1.4,1.1,2.8,2.1,4.1,3.1c0.8,0.8,1.5,1.7,2.1,2.6c0.5,0.9,0.8,2,0.8,3.2c0,0.6,0,1.3,0,1.9c-0.3,1.1-0.9,1.8-1.9,2.2
			c-0.4,0.1-1,0-1.8-0.3s-1.4-0.4-1.6-0.4h-6c-1.4,0-2.8,0-4.2-0.1s-2.7-0.2-3.8-0.4c-1.1-0.2-1.8-0.4-2-0.7c-0.2-0.3-0.5-0.4-1-0.4
			c-0.3,0-0.5,0.1-0.7,0.4c-0.5,0.8-2,1.2-4.6,1.2h-5.5c-1.4,0-2.7,0-4.1-0.1c-1.4-0.1-2.8-0.3-4.4-0.6c-1.6-0.3-2.7-0.5-3.3-0.7
			s-1.2-0.5-1.8-1s-1-1-1.2-1.6s-0.3-1.4-0.3-2.4c0-1.8,0.3-2.8,1-3c0.6-0.1,1.1-1,1.5-2.6c0.6,0,1.7-0.1,3-0.4
			c1.4-0.3,2.5-0.4,3.3-0.4c0.4,0,0.8,0,1.3-0.1c0.5,0,1.1-0.4,1.8-1.1s1.4-1.7,2-2.9c0.6-1.2,1-2.6,1-3.9c-0.3-1.2-0.6-2.1-0.8-2.8
			c-0.5-2-0.7-3.5-0.7-4.3c0-1.1,0.4-2.1,1.1-2.9c0.5-0.5,0.9-0.9,1.4-1.4c0.1-0.3,0-1.1-0.2-2.5s-0.3-2.4-0.3-3.2
			c0-0.3,0.1-0.8,0.3-1.5s0.3-1.3,0.3-1.8c-0.6-1.1-1-2-1-2.6v-13.5c0,0,0.8-2.2,0.8-2.6c-0.5-0.9-0.9-1.6-1-1.9c0-1,0-1.8,0.1-2.4
			c0-0.6,0.2-1.6,0.5-3.1c0.4-1,0.8-2,1.2-3c0-0.6,0-1.4,0.1-2.1c0-0.8,0.1-1.3,0.1-1.4c0-2.2,0-3.7,0.1-4.4c0.3-0.6,0.4-1,0.5-1.2
			c0-0.3,0-0.7-0.1-1.2l-0.3-6.3v-4.1l0.3-2.2c-0.8-0.9-1.4-1.6-1.8-1.9c-0.6-0.6-1.4-1-2.2-1c-0.9,0-1.6,0.3-2.1,0.8
			s-1,0.9-1.5,1.2c-0.5,0.3-1.2,0.5-2.1,0.5l-1.7-0.7c-1-0.6-1.8-1-2.5-1c-0.4,0-0.7,0.1-1.1,0.3c-0.4,0.2-0.7,0.4-1.1,0.5l-4.1,1.3
			c-2.3,0.6-4,0.8-5,1.3h-2.9c-0.2-0.3-0.3-0.1-0.3,0.3s-0.4,1.1-1,2s-2,2.5-3.9,4.8c-2,2.3-3.4,3.8-4.2,4.7c-0.8,0.9-1.5,1.5-2,2
			c-0.5,0.4-1,0.6-1.6,0.6c-1.7,0-2.8-0.8-3.4-2.3c-0.6-1.6-0.9-3.3-0.9-5.2c0-1.3,0.4-2.5,1.2-3.5c0.8-1.1,1.3-1.9,1.5-2.4
			c0.2-0.6,0.4-1.4,0.6-2.6c0.2-1.2,0.5-2.2,0.8-3.1c0.4-0.9,0.8-1.8,1.4-2.7c0.3-0.4,0.9-1.2,1.8-2.5c0.4-0.6,1-1.1,1.8-1.8
			c0.8-0.6,1.3-1.1,1.5-1.2c0.1-0.6,0.2-1.3,0.3-1.9c0.9-0.8,2.1-1.5,3.4-2c1.4-0.5,2.3-1.1,2.3-1.1h9.1l2.5,1.1l1.4-1.1h2.2
			c0.4,0.3,0.7,0.6,1,0.7c1.2,0.6,2.3,1.1,3.4,1.4c1.1,0.3,4.1-0.1,4.1-0.1h5.1h17.2l9.9,1.9l1.7-1.1l9.5-0.3c0.6,0,1.9,0.4,3.7,1.2
			c1.8,0.8,3.1,1.2,3.9,1.2c0.6,0.1,2.1,0.1,2.1,0.1h1.4c0,0,2-0.4,2.9-0.7c0.9-0.3,1.9-0.6,2.9-1l2.9-1c0.9,0,1.9,0.6,3,1.9
			C978.7,396.6,979.3,397.7,979.3,398.6z"/>
		<path class="st0" d="M1095,497.4l-2.7,2.6h-1.6l-9.5-0.8l-8.6-2.3l-1.7-1.2l-4.8,0.1l-1.8-0.8l-1.5,0.8l-0.7-1.1v-1.8l-4.4-2.8
			l-2.6-5.7l-1.8-0.3l-4.1-6.6v-3.6l-2.4-5.8l-2.6-3.5v-2.5l-4-4.6v-3.4l-4.6-4l-5.8-2.1h-1.8l-3-2h-2.6l-2.2,2.2v12v4.8l-0.8,1.2
			l0.8,6.8v4.1l-0.7,1.3l0.7,10.4l1.6,2.7l1.9,1.5l5.8,0.8l1.1-0.8h1.7l1.8,1.7l1.3,3.6l-0.5,1.7l-2.5,0.9h-3.4l-3.7-1.3l-9.8-0.6
			l-3.3-0.3l-1,0.4l-3.7-0.7l-7.5,0.3l-2.9,2.2l-2.6-1.3l-1.8-1.2l-2-2.1l-0.5-1.9l2.7-2l2.6-0.1l1.5,0.7l1.2-0.8l3.8-3.6l0.5-3.1
			l1-5.7l-0.8-1.6l2.2-1.2l-1.4-1.5l0.5-3.9l1.5-4l-0.7-13.8l-0.8-4l0.8-1.3v-13.8l-0.8-1.4l2.5-4.5l-1-1.7l0.5-4.7l-1.2-2.2
			l1.7-2.9l-0.7-13.6l-3.3-3.7h-1.7l-3,0.5l-1.6,1.6l-1.6,0.4l-2.6-1.4l-0.8-2l0.3-3.8l0.9-1.9l2.2-1.4h4.4l4.1,1.5l1.1-0.7l4.4,0.1
			l16,0.6l1.9,0.7l2.6-0.2h10.5l7.7-1.3l3.8,1.5l3.3,1.1l6.6,0.8l1.4,1.3l1.8,0.1l6.6,5.7l1,2.9l0.8,2.5v3.1l1.4,4l-0.2,2.5
			l-0.9,3.7l-0.2,3.2l-3.1,4.4v3.5l-3.4,3.9l-4.4,1.3l-3.7,2.8h-3.6l-4.1,4l0.6,1l3.6,3.7l0.7,2l1.5,1.2l0.6,2.1h1.9l1.4,1.2
			l1.2,1.8l-0.4,3.2l1.5,3.2l3.3,4.9l3,4.4l2.8,3.4l1.2,2.6l3.6,4.5l3.3,2.7l2.5,2.1l6.1,1.1l1.1-0.4l3.3,1.6l1.4,1.2v4.9H1095z
			 M1056,427.1l-0.7-1.4l0.7-7.2l-0.9-3.9l-1.2-2.8l-1.9-1.7v-0.4l-1.5-1.8h-1.3l-3.7-3.8l-4.4-2.7l-3.4-0.8l-0.7-1.1l-4.2,0.4h-6.2
			l-1.4,1.8l-1.2,2.5l-1.8,4l0.8,1.9v3.3l-0.8,7.1l-1.2,1.8v3.5l1.2,1.1l-1.2,1.7v1.8l1.8,1.5l-1.8,2.2v5.4l1.2,0.8l4.8-0.8l3.7,0.8
			l2.5-0.6l6.5,1l1.9-1.2l4.7-0.4l1.8-2.3h1.9l5.8-5.9v-3.8H1056z"/>
	</g>
	<g class="st1">
		<path class="st0" d="M1213.2,497.8l-2.3,3.2l-3,1.2l-4.4-1.2l-9.3,0.8l-4-0.8h-4.3h-5.9h-3.4l-3.8,1.1l-1.8-1.1l-3.6-0.9l-1.5-2.6
			l0.8-2.7l1.4-0.9l1.5,1l0.1-1h4.2l2.1,0.8l2.5-1l1.9-2.2l-0.8-1.9l-3.2-6.9l0.6-1.3l-1.3-1.9l-2.4-8.3l-1.7-3.2l-0.3-2.9l-2.7-5
			l-0.6-4.6l-2.7-1l-2.9-0.5h-16.9h-3.2h-1.4l-1.5,0.5l-0.3,2.1l-1.3,1.1v2l-1.4,1.4l1.1,0.1l-3.8,7.4v4.1l-1.8-0.4l-0.1,2.5
			l-2.5,7.5l1.5,0.8l-0.5,1.8l-1.5,0.1l0.4,2.6l2.2,1.8l0.4,3.3l1.4-0.3l2.2,1.5h2.7l5.6,1.8l2.7,1.9l-0.9,1.9l-1,0.3l-0.4,1.8
			l-5.9-0.7l-11.4,1l-2.7-1l-2.3,1.6l-2.5-1.6h-3.3l-4.2,1l-1.8-1l-1.2,2.6l-3.1-1.7l-4-0.9l-2.2-2.3l-1.1-2.6l2.9-3.6l4.9-3
			l5.3-1.4l2.1-1.4l2.7-2.6l2.3-3.2l3.8-12.2l3.2-6.9l2.1-2.5V455l2.2-1.9l-0.1-3.9l1.2-0.8l2.8-7.3l1.8-5.3l2.1-1.2l0.1-2.7l3.3-8
			l0.3-2.4l1.1-2.2l2.2-4.9l1.1-1.1l5.1-13.4l11.5-6.8h4.2l3.1,1.6l0.4,3l-1-0.3l0.1,3.7h1.1l2,6.4l0.7,2.7l0.9,1.8l-0.7,2.2
			l3.6,3.4l1.4-0.7l0.3,7.3l-0.7,6.4l1.8,3.1l0.6,5.3l8.6,10.2l1,2.2l-0.1,4.6l-0.7,1.1l0.1,2.7l2.5,1.1l-0.3,3.3l1.1,2.4l1.2,5.6
			v3.7l1.2,2.6l3.2,7.4l2.1,2.9l4.1,1.8l1.9,1.9l1.2,1.5h1.9L1213.2,497.8z M1163,444.7v-4l-1.4-3.6l-1.7-1.9l-1.7-3.6l-0.3-3
			l-1.8-1.9l-1.2-3l-2.3-1.1l-2.5,2.6l-1.8,4l-1.5,3.4l-0.3,3.3l-1.5,3.6l0.4,2.6l-2.1,1.1l2.1,1.8l3.6,1.1l3.3,0.7l3.5,1.2l1.9-0.4
			l4-1.8L1163,444.7z"/>
	</g>
	<g class="st1">
		<path class="st0" d="M1305.1,398.6l-0.7,4l-1.4,4.7c-0.8,2.7-1.7,4.6-2.7,5.9s-2,1.9-3.2,1.9c-1,0-2.2-0.5-3.5-1.6l-1.7-2
			c-1.1-1-1.9-1.8-2.3-2.1c-1.1-1-2.1-1.7-2.9-2.1c-1.7,0.1-2.8,0.1-3.3,0l-4.7-1.4c-0.5-0.1-1.1-0.3-1.9-0.7
			c-0.8-0.4-1.5-0.6-2.1-0.3h-11.2c-0.5,0.3-0.9,0.8-1.4,1.3s-0.7,1-0.7,1.4c0.3,0.4,0.5,0.6,0.6,0.8c0.5,0.8,0.8,1.6,1,2.3
			c0.2,0.7,0.3,1.4,1,2.1v3.3c-0.7,0.6-1.1,2.4-1.8,5.3c-0.7,2.9-1.2,4.5-1.5,4.9l1.4,5.4v3.6l-2,2.2v5.8c0,0,0.9,0.9,1.5,1.7
			c0.6,0.7,0.5,2.1,0.5,2.1v3.5l0.4,1.4l-0.4,9.2c0.3,0.8,0.4,1.3,0.4,1.7c0,0.5-0.1,1.1-0.3,1.8c-0.7,0.8-1.2,1.7-1.8,2.5l0.8,3.9
			l1.3,5.4c0.1,1.7,0.2,3.1,0.2,4.2c0.1,1.1,0.3,1.9,0.6,2.3c0.1,0.1,0.2,0.3,0.5,0.6c-0.5,1-0.7,1.6-0.7,1.8c0,1.2,0.8,2.4,2.3,3.5
			s3,2.1,4.5,3.2c0.9,0.8,1.7,1.7,2.3,2.7c0.6,0.9,0.9,2,0.9,3.2c0,0.7,0,0.8,0,1.4c-0.3,1.1-0.9,1.8-2,2.2c-0.4,0.1-1,0-1.8-0.3
			s-1.4-0.4-1.7-0.4h-5.9c-1.4,0-2.8,0-4.3-0.1s-2.8-0.2-3.9-0.4c-1.2-0.2-1.8-0.4-2-0.7c-0.2-0.3-0.5-0.4-1-0.4
			c-0.3,0-0.5,0.1-0.7,0.4c-0.5,0.8-2.1,1.2-4.8,1.2h-5.6c-1.4,0-2.8,0-4.2-0.1c-1.4-0.1-2.9-0.3-4.6-0.6c-1.6-0.3-2.8-0.5-3.4-0.7
			s-1.2-0.5-1.9-1c-0.7-0.5-1.1-1-1.3-1.6c-0.2-0.6-0.3-1.4-0.3-2.4c0-1.8,0.3-2.8,1-3c0.7-0.1,1.2-1,1.6-2.6c0.7,0,1.7-0.1,3.1-0.4
			s2.5-0.4,3.4-0.4c0.4,0,0.8,0,1.3-0.1c0.5,0,1.1-0.4,1.8-1.1c0.7-0.7,1.4-1.7,2.1-2.9c0.7-1.2,1-2.6,1-3.9
			c-0.3-1.2-0.6-2.1-0.8-2.8c-0.5-2-0.8-3.5-0.8-4.3c0-1.1,0.4-2.1,1.1-2.9c0.5-0.5,0.9-0.9,1.4-1.4c0.1-0.3,0-1.1-0.2-2.5
			s-0.4-2.4-0.4-3.2c0-0.3,0.1-0.8,0.3-1.5c0.2-0.7,0.3-1.3,0.3-1.8c-0.7-1.1-1-2-1-2.6v-13.5c0,0,1.6-2.2,1.6-2.6
			c-0.5-0.9-0.9-1.6-1-1.9c0-1,0-1.8,0.1-2.4c0-0.6,0.2-1.6,0.5-3.1c0.4-1,0.8-2,1.2-3c0-0.6,0-1.4,0.1-2.1c0.1-0.8,0.1-1.3,0.1-1.4
			c0-2.2,0-3.7,0.1-4.4c0.3-0.6,0.4-1,0.5-1.2c0-0.3,0-0.7-0.1-1.2l-1.2-6.3v-4.1l1.2-2.2c-0.8-0.9-1.4-1.6-1.8-1.9
			c-0.6-0.6-1.4-1-2.2-1c-0.9,0-1.6,0.3-2.1,0.8s-1,0.9-1.5,1.2c-0.5,0.3-1.2,0.5-2.1,0.5l-1.7-0.7c-1-0.6-1.8-1-2.5-1
			c-0.4,0-0.7,0.1-1.1,0.3c-0.4,0.2-0.7,0.4-1.1,0.5l-4.1,1.3c-2.3,0.6-4,0.8-5,1.3h-2.9c-0.2-0.3-0.3-0.1-0.3,0.3s-0.4,1.1-1,2
			s-2,2.5-3.9,4.8c-2,2.3-3.4,3.8-4.2,4.7c-0.8,0.9-1.5,1.5-2,2c-0.5,0.4-1,0.6-1.6,0.6c-1.7,0-2.8-0.8-3.4-2.3
			c-0.6-1.6-0.9-3.3-0.9-5.2c0-1.3,0.4-2.5,1.2-3.5c0.8-1.1,1.3-1.9,1.5-2.4c0.2-0.6,0.4-1.4,0.6-2.6s0.5-2.2,0.8-3.1
			c0.4-0.9,0.8-1.8,1.4-2.7c0.3-0.4,0.9-1.2,1.8-2.5c0.4-0.6,1-1.1,1.8-1.8c0.8-0.6,1.3-1.1,1.5-1.2c0.1-0.6,0.2-1.3,0.3-1.9
			c0.9-0.8,2.1-1.5,3.4-2c1.4-0.5,2.3-1.1,2.3-1.1h9.1l2.5,1.1l1.4-1.1h2.2c0.4,0.3,0.7,0.6,1,0.7c1.2,0.6,2.3,1.1,3.4,1.4
			s4.1-0.1,4.1-0.1h5.1h17.2l9.9,1.9l1.7-1.1l9.5-0.3c0.6,0,1.9,0.4,3.7,1.2c1.8,0.8,3.1,1.2,3.9,1.2c0.6,0.1,2.1,0.1,2.1,0.1h1.4
			c0,0,2-0.4,2.9-0.7c0.9-0.3,1.9-0.6,2.9-1l2.9-1c0.9,0,1.9,0.6,3,1.9C1304.5,396.6,1305.1,397.7,1305.1,398.6z"/>
		<path class="st0" d="M1406,478.7c-0.6,0.7-0.9,1.5-1.1,2.5s-0.3,1.9-0.4,2.8c-1,1.5-1.9,3-2.8,4.4c-0.8,1.4-1.5,3.1-2.1,4.9
			c-0.3,0.9-0.3,1.7,0,2.5s0.6,1.5,0.8,2.1c0,1.6-0.5,2.7-1.5,3.2c-1,0.6-2.4,0.9-4.3,0.9c-1.7,0-3.1-0.2-4.3-0.7
			c-1.2-0.5-2-0.7-2.4-0.7c-0.6,0-1.1,0.1-1.4,0.2s-0.7,0.5-1.2,1.3h-13.9c0,0-0.7-0.2-1.1-0.2c-1.3-0.4-2.6-0.7-3.9-0.8
			c-1.3-0.1-2.9-0.2-4.6-0.2s-3.4,0-4.8,0.1c-1.5,0-2.9,0.1-4.1,0.1c-0.4-0.1-1-0.3-1.9-0.8c-0.9-0.4-1.5-0.6-1.7-1.1h-4
			c-1.4,0.5-2.8,0.6-4.1,0.9l-4.8,1l-19.9-1c-0.6-1.7-0.8-3-0.8-4.1c0-2,1.2-3.6,3.6-4.8c2.4-1.1,4.6-1.7,6.6-1.7
			c0.6-1.2,0.8-2.3,0.8-3.3c0-0.7-0.1-1.7-0.3-3c-0.2-1.2-0.3-2.1-0.2-2.6c0-0.2,0.2-0.5,0.7-1s0.8-1.2,1-2.3
			c0.1-1.1,0.2-2.7,0.3-4.9c0-2.2,0.1-3.5,0.1-4.1c0-1.4-0.3-3.1-0.8-5.1s-0.8-3.5-0.8-4.4c0-1.3,0-2,0.1-2.3
			c0.1-0.2,0.5-0.7,1.2-1.4v-9.8c0-0.3-0.2-0.9-0.4-1.8c-0.2-0.9-0.3-1.8-0.3-2.8c0-1.7,0.2-3.2,0.6-4.5c0.4-1.2,1.1-3.2,1.1-3.2v-3
			l-1.4-0.8l1.4-4.4v-4.1l-1-1.1l1-3.9v-5.8c0-0.3-0.2-0.6-0.5-1s-0.5-1.2-0.5-2.5c-1.7,0-3.8-0.4-6.3-1.2c-3.6-1.2-5.4-2.7-5.4-4.6
			c0-0.5,0.9-1.5,2.7-3.2c0.5-0.5,1.1-1,1.8-1.6c0.6-0.6,1.1-0.9,1.5-0.9l2.7,0.8l9.9,2.3h12.2c0.4,0,0.7,0.1,1,0.4s0.8,0.4,1.5,0.4
			c0.4,0,1.3-0.2,2.8-0.6s3.3-0.8,5.3-1c0.7,0.2,1.6,0.4,2.5,0.6c1,0.2,2.1,0.3,3.5,0.3c3.2,0,6.8-0.4,10.7-1.2
			c0.9-0.2,2.1-0.3,3.4-0.3c1.4,0,2.3-0.1,2.7-0.2c0.4,0,1.1,0.1,2.3,0.3c1.2,0.2,2.1,0.3,2.7,0.3c0.7,0,1.5-0.1,2.2-0.4
			c1.6-1.5,2.8-2.6,3.7-3.5c0.9-0.8,1.8-1.3,2.7-1.3c0.5,0.1,0.9,0.2,1.4,0.3c0.5,0.1,0.7,0.3,0.8,0.6l2.3,10.1c0,3.7-1,6.4-3,8
			v12.6c-0.1,0.1-1.1,0.7-3.1,1.7c-0.6,0.3-1.5,0.8-2.9,1.6c-0.5,0-0.9-0.2-1.3-0.7c-0.7-0.8-1.1-1.2-1.4-1.4c-1-0.8-1.8-1.4-2.2-2
			c-0.4-0.6-1-1.5-1.6-2.7c-0.3-0.6-0.8-1.6-1.4-3c-0.7-1.4-1-2.4-1.1-3c-0.5-2.4-0.8-3.8-1-4.1c-1-2.3-3.2-3.4-6.9-3.4h-10.1
			c-0.7-0.3-1.3-0.7-2-1l-4.3,0.5l-2.9,1l-1.7-1.4h-3c-0.8,1.7-1.4,2.8-1.8,3.5c-0.6,1-1,2-1,3.1c0,0.9,0.2,2.6,0.6,5.1
			s0.7,4.3,1,5.5c0.1,0.2,0,1.5-0.1,3.9c-0.5,6.7-0.7,12.7-0.7,18.1l2.1,1.9h13.9c0.5,0,1.1-0.2,1.8-0.7c0.7-0.5,1.3-0.8,1.7-1
			c1-0.3,1.9-0.3,2.6,0.1c0.7,0.3,1.4,0.6,1.9,0.8c0.7,0,1.3-0.5,1.8-1.4s1.1-2.5,1.8-4.7l0.8-3.9c0.6-0.7,1-1.4,1.2-1.9
			c0.3-0.6,0.6-1.2,1.1-2s1-1.2,1.5-1.2s0.9,0.1,1.2,0.4c0.3,0.3,0.7,0.5,1,0.8c0.7,0.3,1.4,0.6,1.9,0.9s0.9,0.8,1.2,1.6
			c0.3,0.7,0.5,1.6,0.6,2.5s0.1,2,0.1,3.3l-0.3,4c0,0.4,0.3,1.1,0.8,2.1s0.8,1.8,0.8,2.3c0,0.7-0.3,1.5-0.8,2.3s-0.8,1.4-0.8,1.9
			v9.3c-1.5,1.1-2.4,1.7-2.7,1.7c-0.7,0-1.4,0-2.1,0c-2.1,0-3.4-0.2-3.9-0.6c-0.6-0.4-1.3-1.3-2.2-2.7c-0.5-1.2-0.9-2.4-1.4-3.6
			c-0.4-0.4-1.1-0.6-2.2-0.7s-1.9-0.2-2.3-0.3s-1.1-0.1-2-0.1c-1.1,0-3.3,0-3.3,0s-5.6-1.1-6.4-1.2s-1.9-0.8-3.4-1.8h-7v5l0.6,1.4
			l-0.7,3l1.1,2.8v3.9l-1.1,1.7l1.3,5.8l0.3,3.3l-1.5,1.4v2.2c0.2,1.2,0.4,2.4,0.7,3.4c0.3,1,1,1.9,2.1,2.7c1.6,1.3,3.5,2.2,5.9,2.7
			c2.4,0.4,5.2,0.7,8.4,0.7c1.2,0,2-0.1,2.4-0.2c0.4-0.2,0.9-0.3,1.3-0.6h9.1c1.7,0,3.5-0.4,5.5-1.2c2-0.8,4.1-2,6.3-3.5l2.5-1.6
			c1.1-0.8,2.4-1.9,4-3.4c0.6-0.7,1.3-1.4,2.1-2.1c1.1-0.4,1.8-0.8,2.2-1.1c2.6-1.9,4.1-2.9,4.6-2.9c1.2,0.4,2.2,0.6,2.9,0.7v1.8
			H1406z"/>
		<path class="st0" d="M1542,418.7c0,1.3,0,2.3,0,3.3c0,0.7-0.1,1.7-0.4,3.1c-0.2,1.4-0.6,3-1,4.7c-0.7,3-1.4,5.1-2.1,6.3
			c-2,3.2-4.1,5.6-6.4,7.2c-1.4,1-3.1,1.9-5.2,2.5c-0.7,0.1-1.3,0.1-2,0.1c-0.2,0.1-0.5,0.6-0.9,1.5s-0.7,1.4-0.8,1.5
			c-0.5,0.7-1.4,1.4-2.8,2l-11.3,1.7c-0.7,0-1.3,0-1.8-0.1c-0.6-0.1-1.8-0.5-3.7-1.1c-1.9-0.6-3.6-1.5-5.2-2.5c-1.5-1-2.3-2-2.3-3.1
			c0-0.8,1.3-1.3,3.9-1.4s4.7-0.3,6.2-0.6c1.5-0.3,2.9-0.8,4.2-1.5c0.9-1.1,1.7-1.8,2.2-2.1l2.8-0.7c1-0.3,1.8-0.6,2.4-0.9
			s1.3-0.8,2.1-1.3c-0.1-0.9,0-1.5,0.3-1.7c0.8-0.5,1.7-0.9,2.5-1.4c0.2-1.1,0.4-1.9,0.6-2.4s0.4-0.8,0.6-1.1c0.2-0.3,0.5-0.6,1-1.1
			v-8.8c0-0.3-0.2-0.7-0.5-1.4c-0.8-1.4-1.6-2.8-2.5-4.3c-0.2-0.4-0.2-0.7-0.1-1s0-0.6-0.4-1c-1.1-0.3-1.7-0.5-1.9-0.8
			c-0.5-0.6-1.4-1.6-2.5-2.7c-1.1-1.2-1.9-2-2.5-2.5c-1.8-1.4-3.3-2.1-4.4-2.1H1500c-0.5-0.7-0.9-1.2-1.1-1.5s-0.5-0.3-1.1,0
			c-1.4,0.5-2.4,1.2-3,2s-0.9,1.9-0.9,3.5c0,0.4,0.3,1,0.9,1.8s0.9,1.4,0.9,1.8s-0.3,0.7-0.9,1s-0.9,0.5-0.9,0.8v15V451
			c0,0.7-0.1,1.3-0.2,1.6c-0.2,0.4-0.3,0.6-0.4,0.8c-0.5,0.7-0.7,1.5-0.7,2.2c0,0.5,0.1,1,0.4,1.7s0.4,1.1,0.4,1.3
			c0.3,1.7,0.7,3.7,1,5.9c0.3,2.2,0.4,4.1,0.4,5.6c0,1.8-0.2,3-0.7,3.4c-0.5,0.5-0.7,0.8-0.7,1.1c0.5,0.8,0.8,1.5,1,1.9
			c0.6,1.5,1,2.7,1,3.8c0,0.2-0.2,0.5-0.7,1s-0.7,0.8-0.7,0.9c0,0.5,0.6,0.9,1.8,1.2c0,2.5,1.2,4.7,3.7,6.6c1.4,0.4,2.4,0.7,2.7,1
			c0.4,0.3,0.8,1,1.4,2.1c0.5,1.1,1,1.8,1.5,2.3s0.8,0.9,1.1,1.2c0.3,0.3,0.4,0.6,0.4,0.9c0,0.2-0.4,0.6-1.3,1.2s-1.6,1.3-2.2,2.1
			l-15.5,0.8l-4.4-0.8h-17.7c-0.5,0-0.9,0-1.4,0c-1,0-2,0-2.9,0c-0.5,0-1-0.1-1.5-0.4s-1-0.6-1.5-1s-1.1-1.1-1.9-2.1
			c-1.4-2-2.5-3.3-3.2-3.7v-1.1c1.2-0.3,2-0.5,2.5-0.8c0.4-0.2,0.9-0.5,1.4-0.8s1.1-0.6,1.9-0.9c0.7-0.3,1.4-0.5,2.1-0.5l6.2-0.6
			c1.7,0,3.1-0.2,4.3-0.5c1.2-0.3,2.1-1,2.7-2c0.2-0.4,0.3-1.1,0.4-2.1c0-1,0.1-1.7,0.1-2.2c0-0.7-0.1-1.4-0.2-2.1s-0.2-1.2-0.2-1.6
			c0-1,0-2.6,0-5.1c0-2.4,0-3.7,0-3.8V468c0-0.6,0-1.6,0-3.1l-1.2-4.7l-0.6-4.2c-0.1-0.3-0.4-0.6-0.8-0.8c-0.4-0.3-0.6-0.5-0.7-0.7
			s-0.2-0.5-0.2-0.8c-0.1-0.4-0.1-0.7-0.2-1.1c0.6-0.8,1.3-1.8,1.9-3.1c0.6-1.2,1-2.7,1.3-4.6c0.1-0.6,0.1-1.6,0.1-3.2
			s-0.1-3-0.1-4.3c0-0.4,0.1-0.7,0.3-1c0.2-0.3,0.3-0.7,0.3-1.2l-0.6-5.6l0.6-5.6c0.3-0.6,0.4-1.2,0.4-1.8c-0.3-0.6-0.4-1.2-0.4-1.8
			v-6V409c0-1.5-0.4-2.7-1.3-3.8c-0.9-1-2.1-1.9-3.5-2.5l-3.1-1.1c-0.6-0.3-1.3-0.8-2.1-1.6c-0.4-0.3-0.7-0.6-1-1
			c-1.1-0.9-1.7-1.6-1.7-2.3c0-1.2,0.5-2.1,1.5-2.6s2.2-0.7,3.6-0.7c1,0,1.9,0,2.5,0.1s1.2,0.2,1.8,0.3c0.6,0,1.1-0.1,1.6-0.3
			c0.5-0.2,1.1-0.6,1.8-1.2c2.9,0,5.2,0.1,6.9,0.3c1.7,0.2,3.9,0.6,6.5,1.4c0.4,0.2,1.5,0.3,3.2,0.3c2.1,0,4-0.1,5.8-0.4
			c0.9-0.6,1.6-0.8,2-0.8c1.2,0.4,2.2,0.6,2.8,0.8c2.2,0.6,4.2,0.8,5.9,0.8c1.3,0,2.3-0.2,3.1-0.6c0.7-0.4,1.4-0.8,2-1
			c0.3,0,0.7,0.3,1.3,0.8c0.6,0.5,1.7,0.9,3.2,1.2c1.5,0.3,2.9,0.6,4.2,0.8c1.3,0.2,2.3,0.4,3,0.8c0.7,0.3,1.8,0.6,3.4,0.8
			c1.6,0.2,2.7,0.5,3.4,1c0.4,0.2,0.8,0.6,1.3,1.4c0.5,0.7,0.8,1.2,1,1.4c1.1,0.8,2.3,1.7,3.5,2.5c0.7,0.6,1.2,1.2,1.8,1.9
			c0.5,0.7,0.9,1.5,1.3,2.5s0.7,2.1,1.2,3.3c0.5,1.2,0.8,2.4,1.1,3.5C1541.9,415.9,1542,417.2,1542,418.7z"/>
		<path class="st0" d="M1640,478.7c-0.6,0.7-0.9,1.5-1.1,2.5s-0.3,1.9-0.4,2.8c-1,1.5-1.9,3-2.8,4.4c-0.8,1.4-1.5,3.1-2.1,4.9
			c-0.3,0.9-0.3,1.7,0,2.5s0.6,1.5,0.8,2.1c0,1.6-0.5,2.7-1.5,3.2c-1,0.6-2.4,0.9-4.3,0.9c-1.7,0-3.1-0.2-4.3-0.7
			c-1.2-0.5-2-0.7-2.4-0.7c-0.6,0-1.1,0.1-1.4,0.2s-0.7,0.5-1.2,1.3H1606c0,0-0.7-0.2-1.1-0.2c-1.3-0.4-2.6-0.7-3.9-0.8
			c-1.3-0.1-2.9-0.2-4.6-0.2s-3.4,0-4.8,0.1c-1.5,0-2.9,0.1-4.1,0.1c-0.4-0.1-1-0.3-1.9-0.8c-0.9-0.4-1.5-0.6-1.7-1.1h-4
			c-1.4,0.5-2.8,0.6-4.1,0.9l-4.8,1l-19.9-1c-0.6-1.7-0.8-3-0.8-4.1c0-2,1.2-3.6,3.6-4.8c2.4-1.1,4.6-1.7,6.6-1.7
			c0.6-1.2,0.8-2.3,0.8-3.3c0-0.7-0.1-1.7-0.3-3c-0.2-1.2-0.3-2.1-0.2-2.6c0-0.2,0.2-0.5,0.7-1s0.8-1.2,1-2.3
			c0.1-1.1,0.2-2.7,0.3-4.9c0-2.2,0.1-3.5,0.1-4.1c0-1.4-0.3-3.1-0.8-5.1s-0.8-3.5-0.8-4.4c0-1.3,0-2,0.1-2.3
			c0.1-0.2,0.5-0.7,1.6-1.4v-9.8c-0.4-0.3-0.6-0.9-0.8-1.8c-0.2-0.9-0.3-1.8-0.3-2.8c0-1.7,0.2-3.2,0.6-4.5c0.4-1.2,1.4-3.2,1.4-3.2
			v-3l-1.4-0.8l1.4-4.4v-4.1l-1-1.1l1-3.9v-5.8c0-0.3-0.2-0.6-0.5-1s-0.5-1.2-0.5-2.5c-1.7,0-3.8-0.4-6.3-1.2
			c-3.6-1.2-5.4-2.7-5.4-4.6c0-0.5,0.9-1.5,2.7-3.2c0.5-0.5,1.1-1,1.8-1.6c0.6-0.6,1.1-0.9,1.5-0.9l2.7,0.8l9.9,2.3h12.2
			c0.4,0,0.7,0.1,1,0.4s0.8,0.4,1.5,0.4c0.4,0,1.3-0.2,2.8-0.6s3.3-0.8,5.3-1c0.7,0.2,1.6,0.4,2.5,0.6c1,0.2,2.1,0.3,3.5,0.3
			c3.2,0,6.8-0.4,10.7-1.2c0.9-0.2,2.1-0.3,3.4-0.3c1.4,0,2.3-0.1,2.7-0.2c0.4,0,1.1,0.1,2.3,0.3c1.2,0.2,2.1,0.3,2.7,0.3
			c0.7,0,1.5-0.1,2.2-0.4c1.6-1.5,2.8-2.6,3.7-3.5c0.9-0.8,1.8-1.3,2.7-1.3c0.5,0.1,0.9,0.2,1.4,0.3c0.5,0.1,0.7,0.3,0.8,0.6
			l2.3,10.1c0,3.7-1,6.4-3,8v12.6c-0.1,0.1-1.1,0.7-3.1,1.7c-0.6,0.3-1.5,0.8-2.9,1.6c-0.5,0-0.9-0.2-1.3-0.7
			c-0.7-0.8-1.1-1.2-1.4-1.4c-1-0.8-1.8-1.4-2.2-2c-0.4-0.6-1-1.5-1.6-2.7c-0.3-0.6-0.8-1.6-1.4-3c-0.7-1.4-1-2.4-1.1-3
			c-0.5-2.4-0.8-3.8-1-4.1c-1-2.3-3.2-3.4-6.9-3.4h-10.1c-0.7-0.3-1.3-0.7-2-1l-4.3,0.5l-2.9,1l-1.7-1.4h-4
			c-0.8,1.7-1.4,2.8-1.8,3.5c-0.6,1-1,2-1,3.1c0,0.9,0.2,2.6,0.6,5.1s0.7,4.3,1,5.5c0.1,0.2,0,1.5-0.1,3.9
			c-0.5,6.7-0.7,12.7-0.7,18.1l2.1,1.9h13.9c0.5,0,1.1-0.2,1.8-0.7c0.7-0.5,1.3-0.8,1.7-1c1-0.3,1.9-0.3,2.6,0.1
			c0.7,0.3,1.4,0.6,1.9,0.8c0.7,0,1.3-0.5,1.8-1.4s1.1-2.5,1.8-4.7l0.8-3.9c0.6-0.7,1-1.4,1.2-1.9c0.3-0.6,0.6-1.2,1.1-2
			s1-1.2,1.5-1.2s0.9,0.1,1.2,0.4c0.3,0.3,0.7,0.5,1,0.8c0.7,0.3,1.4,0.6,1.9,0.9s0.9,0.8,1.2,1.6c0.3,0.7,0.5,1.6,0.6,2.5
			s0.1,2,0.1,3.3l-0.3,4c0,0.4,0.3,1.1,0.8,2.1s0.8,1.8,0.8,2.3c0,0.7-0.3,1.5-0.8,2.3s-0.8,1.4-0.8,1.9v9.3
			c-1.5,1.1-2.4,1.7-2.7,1.7c-0.7,0-1.4,0-2.1,0c-2.1,0-3.4-0.2-3.9-0.6c-0.6-0.4-1.3-1.3-2.2-2.7c-0.5-1.2-0.9-2.4-1.4-3.6
			c-0.4-0.4-1.1-0.6-2.2-0.7s-1.9-0.2-2.3-0.3s-1.1-0.1-2-0.1c-1.1,0-2.6,0-2.6,0s-5.6-1.1-6.4-1.2s-1.9-0.8-3.4-1.8h-7.6v5l1.3,1.4
			l-0.7,3l0.4,2.8v3.9l-0.4,1.7l1.3,5.8l0.3,3.3l-2.1,1.4v2.2c0.2,1.2,0.4,2.4,0.7,3.4c0.3,1,1,1.9,2.1,2.7c1.6,1.3,3.5,2.2,5.9,2.7
			c2.4,0.4,5.2,0.7,8.4,0.7c1.2,0,2-0.1,2.4-0.2c0.4-0.2,0.9-0.3,1.3-0.6h9.1c1.7,0,3.5-0.4,5.5-1.2c2-0.8,4.1-2,6.3-3.5l2.5-1.6
			c1.1-0.8,2.4-1.9,4-3.4c0.6-0.7,1.3-1.4,2.1-2.1c1.1-0.4,1.8-0.8,2.2-1.1c2.6-1.9,4.1-2.9,4.6-2.9c1.2,0.4,2.2,0.6,2.9,0.7v1.8
			H1640z"/>
		<path class="st0" d="M1750,497.4l-2.7,2.6h-2.2l-9.5-1.1l-8.6-2.3l-1.7-1.2l-4.8,0.1l-1.8-0.8l-1.5,0.8l-0.2-1.1v-1.8l-4.9-2.8
			l-2.6-5.7l-1.8-0.3l-4.7-6.6v-3.4l-2.4-5.8l-2.6-3.5V462l-4-4.6V454l-4.3-4l-5.5-2.1h-1.7l-2.9-2h-2.5l-2.1,2.2v12v4.8l-0.8,1.2
			l0.8,6.8v4.1l-0.7,1.3l0.7,10.4l1.6,2.7l1.9,1.5l5.8,0.8l1.1-0.8h1.7l1.8,1.7l1.3,3.6l-0.5,1.7l-2.5,0.9h-3.3l-3.7-1.3l-9.8-0.6
			l-3.3-0.3l-1,0.4l-3.7-0.7l-7.5,0.3l-2.9,2.2l-2.6-1.3l-1.8-1.2l-2-2.1l-0.5-1.9l2.7-2l2.6-0.1l1.5,0.7l1.2-0.8l3.8-3.6l0.5-3.1
			l1-5.7l-0.8-1.6l2.2-1.2l-1.4-1.5l0.5-3.9l1.5-4l-0.7-13.8l-0.8-4l0.8-1.3v-13.8l-0.8-1.4l2.5-4.5l-1-1.7l0.5-4.7l-1.2-2.2
			l1.7-2.9l-0.7-13.6l-3.3-3.7h-1.7l-3,0.5l-1.6,1.6l-1.6,0.4l-2.6-1.4l-0.8-2l0.3-3.8l0.9-1.9l2.2-1.4h3.9l4.1,1.5l1.1-0.7l4.4,0.1
			l16,0.6l1.9,0.7l2.6-0.2h10.5l7.7-1.3l3.8,1.5l3.3,1.1l6.6,0.8l1.4,1.3l1.8,0.1l6.6,5.7l1,2.9l0.4,2.5v3.1l1.8,4l-0.2,2.5
			l-0.9,3.7l-0.2,3.2l-3.6,4.4v3.5l-2.9,3.9l-4.4,1.3l-3.7,2.8h-3.6l-4.1,4l0.6,1l3.6,3.7l0.7,2l1.5,1.2l0.6,2.1h2.5l1.4,1.2
			l1.2,1.8l-0.4,3.2l1.5,3.2l3.3,4.9l3,4.4l2.8,3.4l1.2,2.6l3.6,4.5l3.3,2.7l2.5,2.1l6.1,1.1l1.1-0.4l3.3,1.6l1.4,1.2v5H1750z
			 M1710,427.1l-0.7-1.4l0.7-7.2l-0.9-3.9l-1.2-2.8l-1.9-1.7v-0.4l-1.5-1.8h-1.3l-3.7-3.8l-4.4-2.7l-3.4-0.8l-0.7-1.1l-4.2,0.4h-5.7
			l-1.4,1.8l-1.2,2.5l-1.8,4l1.3,1.9v3.3l-1.3,7.1l-0.7,1.8v3.5l0.7,1.1l-0.7,1.7v1.8l1.2,1.5l-1.2,2.2v5.4l0.7,0.8l4.8-0.8l3.7,0.8
			l2.5-0.6l6.5,1l1.9-1.2l4.7-0.4l1.8-2.3h1.5l5.8-5.9L1710,427.1L1710,427.1z"/>
	</g>
	<g class="st1">
		<path class="st0" d="M962,676.1l-4.1,3.9H956l-14.7-1.3l-13.2-3.5l-2.6-1.9l-7.4,0.2l-2.8-1.3l-2.3,1.3l-1.1-1.7v-2.7l-6.8-4.2
			l-4-8.6l-2.8-0.4l-6.4-10v-4.5l-3.5-9.4l-3.5-5.6v-3.3l-6-6.9v-4.6l-7-6.7l-8.5-4h-2.6l-4.5-3h-3.9l-3.5,3.8v16.5v7.5l-1,1.9
			l1,10.6v6.5l-0.8,2.1l1,16.3l2.5,4.2l3,2.3l8.9,1.3l1.7-1.9h2.6l2.8,3.4l1.9,5.6l-0.8,2.7L868,682h-5l-5.6-1.9l-15-0.9l-5-0.5
			l-1.5,0.6l-5.6-1l-11.5,0.5l-4.4,3.5l-4-2.1l-2.7-1.9l-3.1-3.3l-0.8-2.9l4.2-3.1l4-0.2l2.3,1l1.9-1.2l5.8-5.6l0.8-4.8l1.5-9
			l-1.3-2.5l3.3-1.9l-2.1-2.3l0.8-6l2.3-6.3l-1-21.7l-1.3-6.3l0.9-2.1v-13.7l-1.3-2.3l4-7.2l-1.7-2.8l0.9-7.7l-1.9-3.6l2.8-4.7
			l-1.1-22.1l-5.3-6h-2.8l-4.9,0.8l-2.6,2.6l-2.6,0.6l-4.3-2.3l-1.3-3.2l0.4-6.1l1.5-3.1l3.6-2.3h7.5l6.3,2.4l1.7-1l6.7,0.2
			l24.2,0.9l2.9,1l4-1.4h15.9l11.6-0.9l5.8,2.3l5,1.7l10,1.3l2.1,1.9l2.7,0.2l10,8.6l1.5,4.4l1.7,3.8v3.9l1.6,6.2l-0.4,3.8L929,562
			l-0.2,4.9l-4.8,6.8v5.3l-4.6,6l-6.4,1.9l-5.4,4.1h-5.2l-6,6.3l0.8,1.5l5.2,5.7l1,3.1l2.2,1.9l0.8,2.5h2.1l2.1,1.9l1.9,2.7
			l-0.6,4.8l2.2,4.8l5,7.5l4.6,6.6l4.2,5.2l1.9,3.9l5.4,6.8l5,4.1l3.8,3.1l9.2,1.7l1.7-0.6l5,2.5l2.1,1.8V676.1z M903,570l-1-2.1
			l1-10.9l-1.4-5.8l-1.8-4.2l-2.8-2.5v-0.8l-2.3-2.7h-1.9l-5.5-5.7l-6.6-4l-5.1-1.3l-1.1-1.7l-6.3,0.6h-9.8l-2.1,2.9l-1.9,3.8
			l-2.7,6.1l2.2,2.9v5l-2.2,10.7l-1.8,2.7v5.3l1.8,1.7l-1.8,2.5v2.7l2.6,2.3l-2.6,3.4v8.2l1.8,1.3l7.3-1.3l5.7,1.3l3.8-0.8l9.8,1.5
			l2.9-1.9l7.1-0.6l2.7-3.7h3.1l8.7-9V570H903z"/>
		<path class="st0" d="M1211.1,585.3l-3.3,14.2c-0.1,0.8,0.1,1.8,0.7,3s0.9,2.3,0.9,3.4c0,0.8-0.2,1.9-0.6,3.1l-1,6.5
			c-0.3,2.2-0.5,4.1-0.8,5.6c-0.2,1.5-0.7,3-1.4,4.5s-1.2,2.4-1.3,2.8c-0.6,2.6-0.9,5.1-0.9,7.3c0,1.1-0.1,1.9-0.4,2.5
			c-1.1,1.1-1.9,1.9-2.3,2.5c-1.7,1.8-2.5,3.1-2.4,4c0.1,0.8,0,1.8-0.2,2.8s-0.8,2.5-1.7,4.3c-0.9,1.8-1.8,3.3-2.8,4.4
			c-1,1.1-2.4,2.4-4.4,3.7c-0.3,0.7-0.5,1.2-0.6,1.7c-0.6,1.1-1.5,2.3-2.7,3.5c-1.7,0.8-2.8,1.5-3.3,2.1l-9.6,8.3l-6.7,2.1
			c-4,1.7-6.8,2.8-8.3,3.3c-2.9,1.1-5.2,1.8-6.8,2.1c-1.6,0.3-2.7,0.4-3.2,0.4c-1.4,0-2.5-0.1-3.3-0.3s-1.5-0.4-2.1-0.5
			c-0.4,0.1-0.8,0.4-1,0.8c-0.7,1-1.5,1.5-2.3,1.7h-6c-2.2,0-4.5-0.2-6.8-0.6c-2.3-0.4-5.2-1-8.9-1.9c-3.2,0.3-5.4,0.3-6.7,0
			c-0.7-0.1-1.7-0.6-2.9-1.5c-1.3-0.8-2.2-1.3-2.9-1.5l-6.2-1.3c-2.4-0.7-5-1.6-7.9-2.8s-4.9-2-5.8-2.4c-1-0.4-2.4-1.6-4.2-3.5
			c-0.3-0.3-0.7-0.8-1.2-1.5c-2.1-1.3-3.7-2.2-4.8-2.7c-2.1-1.2-3.7-2.4-4.8-3.3c-1.1-1-2.1-1.9-2.9-2.7c-1.7-1.7-3.2-3.8-4.6-6.5
			l-1.2-3.3c-0.7-0.4-1.2-0.8-1.5-1c-0.8-0.7-1.7-1.6-2.7-2.7c-1.9-2.4-3.3-4-4-5c-1.4-1.7-2.3-2.6-2.7-2.7c0-3.9-0.5-6-1.5-6.5
			c-1-0.4-1.7-1.4-2.1-2.9c0-1.1,0-2.5,0-2.5s-0.1-5.6,0-7.7c0.1-2.1,0-3.3-0.1-3.5c-0.8-1.8-1.5-3.2-1.9-4.2
			c-1.3-3.1-1.9-5.4-1.9-7.1c0-0.6,0.2-1.3,0.6-2.1c0.4-0.8,0.6-1.4,0.3-1.7v-21.1c0.4-0.6,0.9-1.7,2-3.3c0.3-0.4,0.8-1.3,1.5-2.7
			c2.2-4.3,4.2-7.7,5.8-10.2c0.4-0.6,1-1.3,1.9-2.3c0.3-1.3,0.5-2.3,0.5-3.1c0.1-0.8,0.7-2.2,1.8-4l5-6.7c1.5-0.4,2.5-0.8,2.9-1.3
			c3.8-4.2,7.5-8.3,11.3-12.5c1.8-1.4,3.6-2.7,5.3-4.1c1.7-1.3,3.4-2.5,5.1-3.4c0.4-0.1,1.4-0.3,2.9-0.6s2.5-0.5,2.9-0.6
			c2.4-1.1,4.8-2.2,7.3-3.3c1.1-0.4,2.5-0.9,4.3-1.5c1.7-0.6,3.5-0.9,5.3-1s3.5-0.2,5.2-0.2c2.1,0,3.4-0.1,3.9-0.3s1.5-0.4,3-0.6
			c1.5-0.2,2.9-0.3,4.1-0.6c1.2-0.2,2.1-0.5,2.7-0.8s1.5-0.5,2.6-0.6h3.3c0,0.4,1.9,3,1.9,3h14.9c0.8,0,2,0.3,3.5,1
			c0.7,0.3,2.4,1.2,5,2.7c1.9,1.1,3.7,2.2,5.2,3.1c0.6,0.4,1.4,0.9,2.4,1.6c1,0.6,2.7,1.3,5,1.9s4.1,1.2,5.3,1.8
			c0.8,0.8,1.7,1.7,2.5,2.5c1.4,1,2.6,2,3.5,3.1c1.5,1.7,3.1,3.7,4.6,6.2c0.7,0.6,1.2,1,1.7,1.5c1.1,1.1,2.4,2.5,4,4.2
			c0.1,0.1,1.1,1.2,2.9,3.1c1.2,1.4,2.2,2.5,2.8,3.3c0.6,0.8,1.3,2,2,3.5s1.2,2.5,1.5,2.9c1.2,2.4,2.2,4.3,2.8,5.9
			c0.6,1.6,1.3,3.5,2,5.6c0.7,2.2,1.3,4,1.9,5.5c0,1.2-0.2,1.9-0.6,1.9s-0.6,0.6-0.6,1.7c0,0.1,0.4,0.7,1.1,1.8
			C1210.7,583.9,1211.1,584.7,1211.1,585.3z M1181.3,615.2c-0.4-2.1-0.7-3.6-0.8-4.6c-0.6-3.2-1-4.9-1.5-5.2v-15.6
			c0,0-1.9-2.1-3-2.5v-1.7c1,0,1.5-0.2,1.9-0.6c-1-0.8-1.5-2.2-1.5-4c0-0.8,0-2.1,0.1-3.7c0.1-1.6,0-2.7-0.1-3.2
			c-0.1-0.4-0.7-1.4-1.8-2.9c-1-1.5-2-3.8-3-6.7c-1.1-1.8-2.3-3.7-3.4-5.5c-1.2-1.9-2.3-4.1-3.2-6.6c-1-1.5-2.9-4.4-2.9-4.4h-2.5
			l-1-4.8c-1.4,0-2.6-0.3-3.7-0.8c-1.9-1.1-3.5-2-4.6-2.7c-4.2-2.4-7.1-4-8.9-4.8c-2.4-1.3-4.4-2.2-6-2.7c-4.2-1.4-7.9-2.1-11.2-2.1
			c-3.2,0-6.2,0.5-9.2,1.4c-2.9,0.9-6,2.3-9.4,4.3c-3.3,2-5.9,3.5-7.7,4.8c-2.5,1.8-4,3.1-4.6,4c-0.1,0.4-0.1,1,0,1.8s0.1,1.4,0,1.8
			c-0.3,0.7-0.9,1.4-1.8,2s-1.5,1.1-1.8,1.6c-0.3,1.5-0.5,3.2-0.6,4.9s-0.3,2.9-0.5,3.3c-0.2,0.5-1,1-2.5,1.5s-2.3,0.9-2.4,1.1
			l-1.7,5.6c-0.1,0.4-0.7,1.7-1.6,4c-0.9,2.2-1.6,4.1-2,5.6c-0.3,2-0.5,3.4-0.7,4.4c-0.8,4.6-1.1,7-1.1,7.3l-1,8.1
			c0,0.6,0.4,1.6,1.3,3.2c0.8,1.6,1.1,2.8,0.8,3.7c-0.7,2.2-1,4.8-1,7.7c0,3.9,0.7,7.9,2.1,11.9c0.1,0.4,0.7,1.6,1.7,3.7
			c1,2,1.5,3.3,1.7,3.9c0,1.4,0,2.7,0,4c0,0.4,0.1,0.9,0.4,1.6c0.3,0.6,0.9,1.5,2,2.5c1,1,1.8,1.8,2.2,2.4l4.4,7.3
			c0.4,0,1.1,0.7,2.2,2.2s2.6,3.2,4.7,5.1l5.8,4.6l5.2,3.8c1.3,1.1,2.4,2,3.5,2.7c1.9,1.3,4,2.2,6.3,2.7c0.7,0.1,1.9,0.1,3.7-0.1
			c1.7-0.2,2.7-0.3,3-0.3c1.7,0.4,4,1.1,7.1,2.1c1.8,0.6,2.8,0.8,3.1,0.8c1.8,0,3.5-0.1,5.2-0.2c1.7-0.1,3.3-0.5,5-1
			c1.3-1.4,2.2-2.2,2.9-2.5c2.6-0.8,4.3-1.4,5-1.7s1.9-0.9,3.7-1.8c1.7-0.9,3.2-1.8,4.5-2.8c0.4-0.3,0.9-0.8,1.5-1.5
			c0.8-1.7,1.4-3.1,1.7-4.4c0-1,0-2,0-2.7c0-1.1,0.3-2.3,0.9-3.6s1.8-2.7,3.7-4.4c2.8-2.8,4.3-4.3,4.6-4.6c1.4-1.7,2.4-3.5,3.1-5.4
			c0.1-0.3,0.3-0.8,0.4-1.5c1-2.1,1.5-4.4,1.5-6.9c0-1.5-0.1-3-0.2-4.5s-0.1-2.5,0-3c0.1-0.4,0.6-1.2,1.3-2.3
			C1180.9,617,1181.3,616,1181.3,615.2z"/>
		<path class="st0" d="M1484.6,527.2c0.5,0.3,0.6,0.8,0.1,1.7c-0.5,0.8-0.7,1.4-0.7,1.7v2.5c0,2.5-0.5,4-1.4,4.5s-2,0.7-3.3,0.7
			s-3.3-0.2-6-0.7c-2.8-0.5-4.3-0.6-4.8-0.3c-1.3,1.1-2.1,2.2-2.5,3.3c-0.1,0.7-0.2,1.5-0.2,2.5s0.1,2,0.2,2.9v7.6
			c0,0-0.2,4.7-0.8,6.3c-0.6,1.5-1.1,2.9-1.6,4c-0.1,0.7,0.2,1.4,1.1,2s1.4,1.1,1.2,1.6v7.5v7.9c-0.5,2.5-0.9,4.4-1.1,5.6l-0.8,8.6
			c-0.6,1.3-1.1,2.5-1.7,3.8c0,1.1,0.4,2.2,1.3,3.3c0.8,1.1,1.3,2,1.3,2.7c0,1.4-0.3,2.6-0.8,3.8c-0.6,1.1-1.1,2.3-1.7,3.5
			c0.3,0.4,0.6,1,0.9,1.7s0.6,1.7,0.8,2.9c0.2,1.3,0.3,3.4,0.4,6.5s0.2,5.1,0.4,6.3v18.8c-0.1,0.8,0.1,1.7,0.6,2.5s0.8,1.5,0.9,1.9
			c0.7,2.5,1.4,4.5,2,6.1c0.6,1.5,1.5,2.7,2.6,3.5c0.8,0.1,1.6,0.2,2.3,0.3c0.7,0.1,1.3,0.3,1.9,0.8s1.2,1.3,2,2.3s1.2,1.7,1.4,2
			c1.4,1.7,2.1,3.4,2.1,5.2c0,0.7-0.2,1.5-0.6,2.5s-0.6,1.7-0.6,2.1c-3.2,0-5.8,0.3-7.9,1c-0.6,0.1-1.4,0.4-2.5,0.7
			s-2.2,0.5-3.3,0.8h-5.2c-2.2-0.6-3.8-0.9-4.8-1.1l-5.4-1l-13.1-1.3c-4.2,0.4-8.3,0.8-12.3,1c-2.9-0.4-4.4-2.2-4.4-5.4
			c0-3.3,6.4-5.3,6.4-5.3h5.7c0,0,1.1-0.3,1.5-1.1s0.9-1.6,1.3-2.4c1-0.8,1.8-1.6,2.4-2.2c0.6-0.6,1.2-1.7,1.8-3.1
			c0.6-1.5,1-3.1,1.4-4.8s0.5-3.4,0.5-4.9c0-0.7-0.1-1.3-0.3-1.9c-0.2-0.6-0.6-1.2-1.2-1.9V634v-5.4c0.1-1.4,0.3-3.4,0.8-6.1
			c0.5-2.6,1-4.3,1.6-5l-0.8-12.1l0.5-4.6v-14.2c-0.8-1.3-1.5-2.1-1.9-2.5s-1.2-0.6-2.3-0.6c-1,0-1.9,0.8-2.7,2.5
			c-0.3,0.6-1,2.7-2.3,6.5l-4.6,12.1c-0.4,1.1-1,2.2-1.9,3.1c-0.3,0.3-0.8,0.7-1.5,1.3c-0.6,1.1-1.1,2.4-1.8,4
			c-0.6,1.5-1.1,2.8-1.6,3.8c-0.8,2.4-1.6,4.5-2.2,6.3s-1.2,3.2-1.7,4.3c-0.5,1-1.6,2.4-3.2,4.1c-0.8,0.8-1.5,1.7-2.1,2.7
			c-0.1,0.7-0.3,1.7-0.5,3.1c-0.2,1.4-0.7,3.2-1.6,5.4c-1.4,2-2.8,3.9-4.2,5.8l-3.3,8.8c-1,1.5-1.9,3.1-2.9,4.6
			c-0.3,0.6-0.4,1.5-0.4,2.7c0,1.4-0.1,2.3-0.4,2.7c-1.1,2.1-2.4,4.2-3.9,6.3s-2.9,3.8-4.2,5.2c-1.3,1.4-3.2,2.1-5.5,2.1
			c-1.3-0.1-2.2-0.2-2.9-0.2c-2.9,0-5.4-2.5-7.3-7.5s-3.8-9.9-5.6-14.8c-0.3-0.6-0.5-2.2-0.7-5s-0.9-5.8-2-9
			c-0.4-0.8-1.4-2.5-2.9-4.9s-2.7-4.4-3.4-5.9c-0.8-1.5-1.3-3-1.7-4.5c-0.3-1.5-0.7-2.6-1.1-3.4l-6.3-12.9c-1-1.9-2.1-3.9-3.2-5.9
			c-1.2-2-1.9-3.3-2.2-3.8c-0.3-0.5-1.6-3.4-3.9-8.7s-5.7-11.1-5.7-11.1h-2.4c-0.1,0.7-0.3,2-0.6,3.9c-0.3,1.9-0.4,3.7-0.4,5.5
			l-0.8,12.9c0,2.4-0.2,5.5-0.5,9.5s-0.5,6.9-0.5,8.9v24.8v4.2c0,2.5-0.1,4.2-0.4,5s-0.7,1.7-1.3,2.6c-0.6,0.9-0.9,1.6-0.9,2
			c0,3.3,1.8,5.4,5.4,6.1c2.9,0.3,5.3,0.5,7.3,0.5c2,0.1,3.9,0.6,5.9,1.5c1.9,0.9,2.9,3.2,2.9,7c0,0.7,0.1,1.7,0.4,3
			s0.1,2.2-0.4,2.6c-0.3,0.3-1.1,0.5-2.4,0.5c-1.3,0.1-2.3,0.2-3,0.3c-1.4,0.1-3.6,0-6.7-0.4s-4.9-0.5-5.5-0.2
			c-1.1,0.3-1.9,0.4-2.5,0.4c-1.2,0-2.8-0.2-4.5-0.6c-1.8-0.4-2.9-0.6-3.3-0.4c-1,0.3-2.3,1.1-4,2.6c-1.7,1.4-3.2,2.2-4.4,2.2
			c-1.6,0-3.8-1-6.4-2.9c-1.5-1.1-2.5-1.7-3.1-1.9v-6.7c2.8-3.2,4.9-5.1,6.5-5.6c1.6-0.6,3-1.1,4.2-1.7c1.2-0.6,1.8-1.3,1.8-2.3
			c0-1.4-0.7-5.2-2.2-11.5s-2.2-10.2-2.2-11.9c0-0.3,0.2-0.9,0.7-1.9s0.9-2.2,1.1-3.8c0.3-1.5,0.4-3.3,0.5-5.3s0.2-3.5,0.3-4.4
			c0.1-0.9,0.2-1.6,0.2-2.1s0-0.8,0-0.9c0-1.1-0.1-2.1-0.2-3s-0.3-1.7-0.6-2.4c0-0.3,0.4-1.6,1.2-4.1c0.8-2.4,1.5-4.6,2-6.5
			s0.7-3.6,0.7-5.1c0-2.2-0.3-3.9-1-5.1c-0.7-1.2-1.4-2.3-2.1-3.4c0-0.6,0.3-1.3,1-2.2s1.2-2.1,1.7-3.4c0.4-1.4,0.7-2.7,0.8-4.1
			c0.1-1.3,0.2-2.7,0.2-4.3c-0.4-2.2-0.6-4.4-0.6-6.7c1.1-1,1.9-1.7,2.3-2.1c1.1-1,1.6-2.1,1.6-3.3l-0.6-8.1l0.8-2.9l-1.2-5l1-7.5
			c0.1-0.4-0.3-1.7-1.5-3.8c-0.3-0.6-0.8-1.5-1.7-2.9c-0.3-0.1-1.3,0-3.2,0.4c-1.9,0.4-3.2,0.6-4,0.6c-2.2,0-3.9-0.5-5.2-1.5
			c-0.6-0.3-1.3-1.3-2.3-3.1c-0.4-0.8-0.9-1.9-1.6-3.3c-0.6-1.4-1.1-2.6-1.3-3.5c0-0.3,0.1-0.6,0.4-0.8c1.2-1.3,2.1-2.4,2.5-3.5
			s0.9-2.4,1.5-4c1.5-2.6,3.6-4,6.2-4c0.6,0,2.7,0.7,6.5,2.2s7.3,2.9,10.5,4.3c4.6,2.1,6.9,3.1,7.1,3.1c1.9,1,3.4,2,4.4,2.9
			c1,1,1.7,1.9,2.3,2.7c0.6,0.8,1.7,3.2,3.3,7.1c1,2.1,1.9,4.2,2.9,6.3c0.6,2.2,1.2,4.5,1.9,6.8c0.7,2.3,1.5,3.5,2.3,3.7
			c0,3.2,0.9,6.2,2.7,9c2.5,3.9,4,6.6,4.6,8.1c0.1,0.7,0.1,1.7-0.2,3c-0.3,1.3-0.2,2.3,0.2,3c1.4,2.9,2.7,5.4,4,7.5s2.1,3.5,2.4,4.4
			c1,3.9,1.9,7.7,2.9,11.5c1.2,1.5,2.1,2.6,2.7,3.3c2.1,2.5,3.2,4,3.3,4.4l0.6,5l2.1,5.8c0.4,2.1,0.9,3.8,1.5,5
			c0.1,0.1,0.6,0.4,1.3,0.8c0.8,0.4,1.5,1.4,2.2,2.9c0.1,0.4,0.8,2.4,1.9,6.1c0.7,2.2,1.5,4.6,2.5,7.1s2.1,3.8,3.3,3.8
			c1.5,0,2.6-0.4,3.1-1.1c0.6-0.8,1.5-3.2,2.9-7.4c0.3-0.8,0.8-1.9,1.6-3.2c0.8-1.3,1.3-2.3,1.8-3c1.2-1.9,2.6-4.1,4-6.4
			c1.5-2.3,2.4-3.9,2.8-4.8c0.4-0.9,0.7-2.2,0.9-3.8c0.2-1.6,0.4-2.9,0.7-4c0.3-1,0.6-2.4,1-4.1c0.4-1.7,1.1-3.6,2.1-5.8
			c0.3-0.6,0.9-1.3,1.9-2.2s1.6-1.6,1.8-2.2c0.2-0.6,0.4-1.7,0.7-3.5c0.3-1.8,0.5-2.9,0.6-3.3l2.5-6.3c0.7-1.7,1.4-3,2.2-3.9
			c0.8-0.9,1.7-1.9,2.8-2.9c1.1-1,1.9-1.8,2.4-2.3s0.9-1.2,1.3-2.2c1.1-3.5,2.2-7,3.3-10.4c1.2-2.1,2.5-4.2,3.7-6.3
			c-0.3-1.7-0.6-3.3-0.8-5c1-1.3,1.7-2.3,2.2-3.1s1.5-1.9,3-3.1c0.8-0.6,1.7-1,2.5-1.3c0.7-0.7,1.4-2.3,2.1-4.8s1.5-4.6,2.3-6.3
			s1.7-3,2.5-4c1.4-1.5,2.7-2.4,4-2.7s2.5-0.4,3.6-0.4c2.2,0.1,3.9,0.2,5.2,0.2c1.2,0,2.9,0,3,0c0.1-0.4,0.2-0.8,0.1-1.3
			c-0.1-0.4,0-0.7,0.3-0.8l6-0.8c0.7,0,2.1,0.5,4.3,1.4c2.2,1,3.7,1.5,4.6,1.8c0.8,0.2,1.7,0.3,2.7,0.4
			C1483.7,526.8,1484.3,526.9,1484.6,527.2z"/>
		<path class="st0" d="M1736.2,677l-3.7,5l-4.7,1.9l-6.9-1.9l-14.7,1.3l-6.3-1.3h-6.7h-9.3h-5.4l-6,1.7l-2.8-1.7l-5.6-1.3l-2.4-4
			l1.3-4.3l2.2-1.3l2.4,1.5l0.2-1.5h7.8l3.1,1.6l3.8-1.5l2.9-3.4l-1.3-2.9l-4.8-10.5l0.8-1.9l-1.9-2.9l-3.6-12.6l-2.5-4.8l-0.4-4.4
			l-4-7.6l-0.8-6.9l-4-1.5l-4.4-1.6H1633h-4.9h-2.1l-2.3,1.7l-0.4,3.2l-2.3,1.7v3l-1.7,2.1l1.7,0.2l-6,11.2v4.5l-2.7-0.6l-0.2,3.9
			l-3.7,11.7l2.3,1.3l-0.8,2.8l-2.3,0.2l0.6,4.1l3.3,2.8l0.6,5.2l2-0.4l3.3,2.4h4.1l8.4,2.8l4.1,3l-1.3,3l-1.5,0.4l-0.6,2.8
			l-8.8-1.1l-17,1.5l-4.1-1.5l-3.5,2.6l-3.7-2.6h-4.9l-6.4,1.5l-2.7-1.5l-1.8,4.1l-4.7-2.7l-5.9-1.4l-3.3-3.7l-1.6-4.1l4.3-5.6
			l7.4-4.7l8-2.2l3.1-2.2l4.1-4.1l3.5-5l5.8-19.2l4.7-10.8l3.1-3.9v-3.1l3.7-2.9l-0.2-6.1l1.9-1.3l4.2-11.3l2.7-8.1l3.1-1.9l0.2-4.2
			l5-12.3l0.4-3.8l1.7-3.3l3.3-7.5l1.7-1.7l7.7-20.7l17.2-10.6h6.4l4.7,2.6l0.6,4.6l-1.5-0.4l0.2,5.2h1.6l3,10.3l1,4.2l1.4,2.7
			l-1,3.3l5.4,5.2l2.1-1l0.4,11.3l-1,9.8l2.7,4.8l0.8,8.2l12.9,15.7l1.5,3.4l-0.2,7.1l-1,1.7l0.2,4.2l3.8,1.7l-0.4,5l1.7,3.8
			l2.2,8.6v2.5l1.9,4.1l5,11.7l3.2,4.5l6.5,2.8l3,3l1.9,2.4h3L1736.2,677z M1659,596.8v-6.1l-2.1-5.4l-2.5-2.9l-2.5-5.4l-0.4-4.6
			l-2.7-2.9l-1.9-4.6l-3.5-1.7l-3.8,4l-2.7,6.1l-2.3,5.2l-0.4,5l-2.3,5.4l0.6,4l-3.1,1.7l3.1,2.7l5.5,1.7l5,1l5.3,1.9l2.9-0.6
			l6.1-2.7L1659,596.8z"/>
	</g>
</g>
</svg>
